<svg id="Layer_1" data-name="Layer 1" xmlns="http://www.w3.org/2000/svg" viewBox="0 0 22.34 16.72"><defs><style>.cls-1{fill:#030101;}.cls-2{fill:#fc0210;}</style></defs><path class="cls-1" d="M537.89,432.38a.06.06,0,0,1,0-.08c.1-.05.11-.14.12-.24,0-.32.06-.65.11-1s.11-.61.16-.92a.22.22,0,0,0,0-.18.11.11,0,0,1,0-.14,1.09,1.09,0,0,0,.08-.47c0-.07,0-.14.06-.19s.1,0,.1-.09a.4.4,0,0,1,0-.19.59.59,0,0,0,.05-.19c0-.12,0-.24.07-.37a7.38,7.38,0,0,0,.16-.94.11.11,0,0,1,0-.08.88.88,0,0,0,.1-.35,6.25,6.25,0,0,1,.17-.72.19.19,0,0,0,0-.13.19.19,0,0,1,0-.13,3.57,3.57,0,0,0,.16-.46.07.07,0,0,0,0-.08l-.09.11a2.55,2.55,0,0,0-.37.61,3,3,0,0,0-.26.76.08.08,0,0,1,0,.05s0,0,0,0a.05.05,0,0,1,0,0v-.09a1.91,1.91,0,0,1,0-.79.08.08,0,0,0,0-.07c-.08-.08,0-.14,0-.2h0a.36.36,0,0,0-.18.07.52.52,0,0,0-.31.35.39.39,0,0,1-.21.26.76.76,0,0,0-.31.33,1.41,1.41,0,0,1-.21.35,1,1,0,0,0-.17.78.06.06,0,0,1,0,0,.39.39,0,0,0,0,.26.68.68,0,0,1-.08.34.83.83,0,0,0-.06.35,4.86,4.86,0,0,0,0,.66.09.09,0,0,1,0,.05s0,0,0,0,0,0,0,0a1.24,1.24,0,0,1-.09-.38c0-.12,0-.25,0-.37a1.09,1.09,0,0,0,0-.18.72.72,0,0,1,0-.48,1.59,1.59,0,0,0,.05-.78.37.37,0,0,1,.08-.33.7.7,0,0,0,.11-.21,4,4,0,0,0,.23-.66.53.53,0,0,0,0-.33,1.1,1.1,0,0,0-.09-.14c0-.06-.06,0-.08,0s0,.05,0,.07a.21.21,0,0,1-.14.12.14.14,0,0,0-.1.1,5.05,5.05,0,0,0-.24.53s0,.05,0,0a.07.07,0,0,1,0-.07v-.39a.54.54,0,0,1,0-.21l.14-.33a3.49,3.49,0,0,0,.2-.7s0,0,0,0,0,0-.06,0l-.21.16-.12.08a.08.08,0,0,0,0,.11.23.23,0,0,1,0,.16h0a3.07,3.07,0,0,1-.49.59l-.22.18s0,0,0,0h0l-.47.33a.56.56,0,0,0-.21.27c0,.12-.06.24-.09.36a1.11,1.11,0,0,1-.21.42.35.35,0,0,0,0,.08.57.57,0,0,0-.13.21c-.08.15-.17.3-.25.46a.32.32,0,0,1-.12.11.63.63,0,0,0-.29.42.34.34,0,0,1,0,.14s0,0,0,0a0,0,0,0,1,0,0c0-.15,0-.29.07-.43s.07-.11.1-.17,0-.06,0-.1.06-.11.1-.16l0,0h0a.73.73,0,0,0,.17-.31h0a0,0,0,0,0,0,0,3.26,3.26,0,0,0,.17-.47c-.17.17-.36.31-.51.49a.44.44,0,0,0-.08.11l-.27.57a2,2,0,0,0-.2.73,7.23,7.23,0,0,0,0,.93v.5c0,.1-.06.16-.1.24s-.09,0-.13,0a.23.23,0,0,1-.12-.1.09.09,0,0,1,0-.07.38.38,0,0,0,.09-.35c0-.21,0-.42,0-.63s0-.4,0-.6c0,0,0-.05,0-.08a.08.08,0,0,0,0-.11.11.11,0,0,1-.07-.11,1,1,0,0,1,0-.18c.16-.4.35-.79.48-1.21a2,2,0,0,1,.42-.63.75.75,0,0,1,.2-.15,2.92,2.92,0,0,0,.37-.24c.28-.21.58-.4.84-.63a.22.22,0,0,0,.1-.13s0-.07.06-.11c.18-.22.46-.36.64-.59h0a.51.51,0,0,0,.21-.2c.05-.06.09-.12.14-.17a.85.85,0,0,0,.21-.46c0-.2,0-.31-.22-.34a1.83,1.83,0,0,0-.46-.12.14.14,0,0,0-.14,0,.93.93,0,0,0-.3.41.35.35,0,0,0-.06.26c0,.08.06.13.09.19s0,0,0,.06-.11,0-.15,0a.52.52,0,0,1-.12-.18v0h0s0,0,0,0h0l-.07-.24h0a.92.92,0,0,0-.1.32.71.71,0,0,0,.12.69l0,0s0,.05,0,.07,0,0-.07,0l0,0c-.09,0-.15,0-.17.09s0,.13,0,.2a.4.4,0,0,0,0,.3c0,.09,0,.11-.09.11h0a.42.42,0,0,1-.19-.16s0,0-.05,0h0s0,0,0,0-.15,0-.23,0a3.18,3.18,0,0,0-.81.49s-.06.06-.11,0-.06,0-.09,0a4.48,4.48,0,0,0-.94.51s-.11.09-.15,0,0-.09.09-.12l.58-.45s.06,0,0-.06,0,0-.07,0a4.1,4.1,0,0,0-1,.52l-.16.1a0,0,0,0,1-.06,0s0,0,0-.06c.35-.25.69-.54,1.05-.8a0,0,0,0,0,0,0c.08-.2.31-.22.44-.36a2.37,2.37,0,0,0,.61-.86.91.91,0,0,1,.07-.14s0,0,0-.05,0,0,0,0a.18.18,0,0,0-.11.14,2,2,0,0,1-.1.26.87.87,0,0,1-.54.49,2.1,2.1,0,0,0-.3.15.57.57,0,0,1-.25.08c0-.05,0-.06,0-.07.17-.13.34-.26.5-.4a1,1,0,0,0,.34-.67,1.57,1.57,0,0,1,.08-.29.43.43,0,0,0,0-.25.07.07,0,0,0,0,.07.25.25,0,0,1-.09.22s0,.05,0,.08-.07.08-.12.11-.17-.09-.14-.19.1-.35.14-.53a1.34,1.34,0,0,1,.16-.37.21.21,0,0,0,0-.19.32.32,0,0,1,.08-.14.24.24,0,0,0,.06-.08.06.06,0,0,0,.05,0,2.1,2.1,0,0,0,.18-.37,3.21,3.21,0,0,1,.12-.33c.09-.17.19-.32.28-.48s0-.05.05-.06,0-.05.07,0,0,.05,0,.07a.81.81,0,0,0-.12.29c0,.1,0,.2-.07.3a.69.69,0,0,0,0,.32,1.26,1.26,0,0,0,.13-.26,2.67,2.67,0,0,1,.2-.46,1.17,1.17,0,0,0,.12-.31,1.45,1.45,0,0,1,.26-.51.22.22,0,0,0,.07-.17.41.41,0,0,1,.17-.31l.27-.22.07-.06c.1-.08.16-.18.3-.23a.3.3,0,0,0,.18-.33c0-.06,0-.12,0-.18s0,0,0,0a1.47,1.47,0,0,0,.3.08.65.65,0,0,1,.22.72,1.65,1.65,0,0,0-.16.42c0,.06,0,.08,0,.06a4,4,0,0,0,.52-.09h0a1.16,1.16,0,0,0,.37,0,.36.36,0,0,0,.34-.15.25.25,0,0,1,.21-.1.27.27,0,0,0,.3-.2c0-.09.11-.15.15-.23s0,0,0,0,0,0,0,0,0,.27-.1.41,0,0,0,0l-.21.11a1.05,1.05,0,0,0-.5.54.69.69,0,0,0,0,.2,1.25,1.25,0,0,1,0,.47.5.5,0,0,0,.13-.07,1,1,0,0,1,.47-.2s.06,0,.08,0,.16-.05.24,0h.1s.07,0,.06-.06a.15.15,0,0,1,.06-.14.26.26,0,0,0,.12-.18.16.16,0,0,1,.13-.13.48.48,0,0,0,.2-.07.72.72,0,0,1,.42-.11.21.21,0,0,0,.22-.12.41.41,0,0,1,.07-.11.21.21,0,0,0,0-.15,1,1,0,0,0,0-.3.52.52,0,0,0-.18-.41.3.3,0,0,1-.07-.27.38.38,0,0,0-.13-.37s0-.11-.07-.15,0,0,0,0h0l.13.1a1.57,1.57,0,0,1,.37.55,1.67,1.67,0,0,0,.25.4,4.45,4.45,0,0,0,.53.62c0,.07,0,.15,0,.23a.71.71,0,0,1-.06.25.11.11,0,0,0,0,.14,1.23,1.23,0,0,1,.33.56.78.78,0,0,0,0,.14.07.07,0,0,0,.09,0s0-.05,0-.08a.88.88,0,0,1,0-.28l0-.2c.1,0,.11.14.15.21a.09.09,0,0,0,0,.05,1.93,1.93,0,0,1,.15.86s0,0,0,0a2.94,2.94,0,0,1-.16.6.81.81,0,0,1-.25.36.53.53,0,0,0-.16.23c0,.07-.12.12-.14.2a.12.12,0,0,0,0,.15,1.42,1.42,0,0,0,0,.2,2.42,2.42,0,0,1,.07.47s0,.05,0,.06.05,0,.07,0a.17.17,0,0,0,.08-.16,1.08,1.08,0,0,0,0-.44.34.34,0,0,1,.05-.31,1.24,1.24,0,0,0,.17-.27s0-.07.06-.05,0,0,0,.08a.43.43,0,0,1,0,.11.74.74,0,0,0,0,.33,1.31,1.31,0,0,1,0,.39v0s0,0,0,0a0,0,0,0,0,0,0,.56.56,0,0,0,0-.12,5.29,5.29,0,0,0,.37-1.29,2.11,2.11,0,0,0,0-.71.76.76,0,0,1,0-.26c0-.1,0-.21.13-.27s.17-.15.12-.34a.34.34,0,0,1,0-.14c.06,0,.07,0,.1.08a.46.46,0,0,1,0,.38,2.57,2.57,0,0,0-.11.48c0,.06,0,.15,0,.17s.12-.06.14-.12a.35.35,0,0,1,.13-.14.18.18,0,0,0,.09-.13c0-.05,0-.1,0-.15a.41.41,0,0,0-.09-.42s0-.1,0-.14a.06.06,0,0,0,0-.09s0,0,0,0a.63.63,0,0,1,0-.77s0,0,0,0h0l.23-.13c.23-.13.46-.26.68-.4a.93.93,0,0,0,.38-.6.61.61,0,0,0,.09-.16.18.18,0,0,1,.08-.09,1.62,1.62,0,0,0,.19,0s.06,0,.07,0,0,0,0,.06a.35.35,0,0,0-.18.28l0,.16,0,.11s-.07.08-.11.11a2.67,2.67,0,0,0-.53.76c0,.1-.12.2-.16.3a.56.56,0,0,0,0,.29.3.3,0,0,1,0,.26c-.06.07,0,.12,0,.19l.07.09a1.72,1.72,0,0,1,.31.45.08.08,0,0,0,.07.07l0-.62.06-.58c0-.11.06-.2,0-.31a.39.39,0,0,1,0-.28.26.26,0,0,0,0-.24s0-.07,0-.09a.24.24,0,0,1,.21-.07.14.14,0,0,1,.07.1s0,.1,0,.15,0,.11.13.05a2.66,2.66,0,0,1,.31-.26.18.18,0,0,0,.08-.13.23.23,0,0,1,.14-.24c.09,0,.14,0,.19.05s0,.25-.11.33-.12.11-.2.16a.18.18,0,0,0-.08.14,1.84,1.84,0,0,0,0,.62,2.26,2.26,0,0,0,.17.52,4.23,4.23,0,0,0,.44.71l.07.12a0,0,0,0,1,0,.05,0,0,0,0,1-.06,0l0,0a7.84,7.84,0,0,1-.54-.61,1.32,1.32,0,0,1-.22-.5,1.84,1.84,0,0,1,0-.47s0-.06,0-.08-.05,0-.07,0a.57.57,0,0,0-.18.34,2.22,2.22,0,0,1-.18.8.14.14,0,0,0,0,.07s0,0,0,.07a.11.11,0,0,0,.08,0,1.56,1.56,0,0,0,.2-.16.12.12,0,0,1,.17,0,.33.33,0,0,0,.16.07c.1,0,.19,0,.21.16l0,0a.69.69,0,0,0,.1.19s.06,0,.09,0,.06,0,.09,0a.81.81,0,0,0,.16.16c.11.08.11.08.14-.05s.06-.08.11,0a.45.45,0,0,0,.09.1c.07.06.11.14.19.16a.32.32,0,0,1,.22.2.3.3,0,0,0,.12.15,1.55,1.55,0,0,0,.55.18.14.14,0,0,0,.14-.06l.15-.23a.39.39,0,0,1,.38-.15l.36,0,.43,0c.25,0,.39-.16.56-.29l.06,0a6.39,6.39,0,0,0,.54-.5l0,0s0-.05.06,0,0,0,0,.06-.09.15-.12.24h0s-.05,0,0,0,0,0,0,.06a.91.91,0,0,1-.21.23l-.22.19h0a1.19,1.19,0,0,1-.59.3l-.32.07a1.6,1.6,0,0,1-.23,0,.43.43,0,0,0-.23.12s0,0,0,.07.05.16.13.2a.23.23,0,0,0,.26,0,.25.25,0,0,1,.19-.07.67.67,0,0,0,.53-.1l0,0a.26.26,0,0,1,.24,0,.26.26,0,0,0,.27,0,.15.15,0,0,1,.09,0,1.33,1.33,0,0,0,.6-.25,1,1,0,0,0,.36-.33.28.28,0,0,0,.08-.15.59.59,0,0,1,.3-.37c.09-.07.2-.11.25-.22a.07.07,0,0,1,.06,0,1,1,0,0,0,.18-.08s.07,0,0-.06,0-.06,0-.08.08.13,0,.19-.24.22-.37.32a.16.16,0,0,0-.07.17,1.79,1.79,0,0,1,0,.23c0,.06.07.06.13.05a.38.38,0,0,0,.29-.26.63.63,0,0,1,.28-.3.4.4,0,0,0,.18-.16l0-.09s0-.06.06,0,0,0,0,.07a.18.18,0,0,0,0,.16s0,0,0,.06,0,0-.05-.05a2.2,2.2,0,0,1-.15.31,1.7,1.7,0,0,1-.26.34.34.34,0,0,0-.09.12,1.71,1.71,0,0,1-.11.14c0,.05-.08.09-.13.07a.31.31,0,0,0-.25,0l-.18.07h0a1.82,1.82,0,0,0-.25.07s0,0,0,0h0v0h0a.33.33,0,0,0-.19.06h0s0,0,0,0c-.16.07-.31.15-.48.21h0a1.66,1.66,0,0,0-.29.1.92.92,0,0,0-.35.19.12.12,0,0,0-.06.12.33.33,0,0,1-.3.16.09.09,0,0,0-.11,0l-.44.23a1.18,1.18,0,0,0-.42.31.32.32,0,0,0,.08.46l.17.14a.35.35,0,0,0,.3.11c.13,0,.15,0,.22.09a.84.84,0,0,0,.22.24s0,0,0,0h0a1.32,1.32,0,0,0,.43.21.39.39,0,0,1,.17.11.61.61,0,0,0,.29.17.51.51,0,0,1,.35.26s0,0,0,0a.61.61,0,0,0-.5-.21,1.55,1.55,0,0,1-.75-.27,2.82,2.82,0,0,0-.51-.19,2.61,2.61,0,0,1-.42-.16s-.07,0-.06,0,0,.15,0,.23c0,.26.17.4.34.54a2.75,2.75,0,0,0,.28.19,1.81,1.81,0,0,1,.34.28c.1.11.26.16.32.3s.12.1.15.16.16.26.24.39a.68.68,0,0,0,.27.26.23.23,0,0,1,.13.21v.09c0,.1.09.12.16.15h0l0,0h0a1.14,1.14,0,0,1,.17.15l.33.34c.09.09.12.09.23,0s.15,0,.2.07a.94.94,0,0,1,.08.34.3.3,0,0,1-.45.21.15.15,0,0,1-.09-.13.27.27,0,0,0-.11-.22.17.17,0,0,0-.2,0s-.08,0-.1,0c-.16-.21-.31-.43-.48-.63a.71.71,0,0,0-.15-.15s0-.07-.07-.1a4.3,4.3,0,0,1-.55-.58s0,0,0,0-.14-.06-.2-.1h0a.05.05,0,0,0,0,0,1.14,1.14,0,0,0-.25-.24c0,.09.08.18.13.27a1.08,1.08,0,0,0,.31.4,2.79,2.79,0,0,0,.38.3s.08.06.11.1,0,0,0,0,0,0-.07,0a1.45,1.45,0,0,1-.29-.11,2.16,2.16,0,0,1-.65-.39,1.76,1.76,0,0,1-.27-.55c.07,0,.09.08.14.1s.06,0,.09,0,0-.06,0-.09l-.09-.27,0-.06c0-.1,0-.12.13-.11h0s0,0,0,0h0l0,0a1.93,1.93,0,0,1,.7.6s0,0,0,0h0s0,0,0,0,.23.31.35.45l0,0h0v0h0s0,0,0,0h0s0,0,0,0h0l0,0h0s0,0,0,0h0s0,.05.06,0,0-.06,0-.09a3,3,0,0,0-.36-.5.94.94,0,0,0-.26-.3h0a.74.74,0,0,0-.12-.13,2.85,2.85,0,0,0-.7-.59.85.85,0,0,1-.28-.22,3,3,0,0,1-.31-.4.31.31,0,0,0-.12-.15.14.14,0,0,1-.07-.14v-.25a.38.38,0,0,0,0-.21,4.89,4.89,0,0,1,0-.54.36.36,0,0,1,.21-.33,3.36,3.36,0,0,0,.67-.37,1.37,1.37,0,0,1,.43-.23,1.12,1.12,0,0,0,.46-.29.06.06,0,0,0,0-.1.07.07,0,0,0-.1,0l0,0a1.68,1.68,0,0,1-.46.24l-.1,0a.41.41,0,0,1-.32.07,1,1,0,0,0-.38,0,1.37,1.37,0,0,1-.57,0,1.43,1.43,0,0,1-.78-.52,2.7,2.7,0,0,0-.28-.31s-.08-.08-.13,0,0,.07,0,.1a3.11,3.11,0,0,1,.5.74c0,.08,0,.17,0,.25a.13.13,0,0,1-.08.17,2.15,2.15,0,0,0-.46.33,2.49,2.49,0,0,1-.58.37.28.28,0,0,1-.22,0,.33.33,0,0,0-.17,0,.34.34,0,0,1-.41-.16.91.91,0,0,0-.11-.16.42.42,0,0,1-.09-.27.13.13,0,0,0,0-.07s0,0,0-.06a.42.42,0,0,1,.23-.51.15.15,0,0,0,.11-.16c0-.14,0-.28,0-.42a.46.46,0,0,0-.1-.42c0-.05-.08-.05-.1,0a.12.12,0,0,0,0,.1,1.07,1.07,0,0,1,.07.19.31.31,0,0,1-.19.35s-.08,0-.1,0-.13-.19-.12-.32a1.71,1.71,0,0,0,0-.39.2.2,0,0,0-.08-.12.53.53,0,0,1-.16-.2c-.1-.17-.17-.34-.28-.5a.37.37,0,0,1,0-.25.55.55,0,0,0,0-.22c0-.06-.11-.16-.16-.14s0,.09,0,.15,0,0,0,0a.76.76,0,0,1,0,.3,1.22,1.22,0,0,0,.07.73s0,.09,0,.14a.31.31,0,0,1-.1.34l-.15.16s0,.07,0,.08a.06.06,0,0,1,.05.07c0,.13.08.26.14.38a1.27,1.27,0,0,1,0,.92s0,.11,0,.14.09,0,.13,0a.55.55,0,0,0,.14-.19.41.41,0,0,1,0-.09.14.14,0,0,1,.23,0,2.87,2.87,0,0,1,.3.67c.06.17.1.35.17.52a.14.14,0,0,1,0,.11.19.19,0,0,0,0,.12.6.6,0,0,0,.07.27,2.18,2.18,0,0,0,.35.54,1.12,1.12,0,0,1,.31.61,3.39,3.39,0,0,1,0,.45.54.54,0,0,0,.09.37.33.33,0,0,1,0,.15.94.94,0,0,1,0,.47c0,.15.05.26.11.39h0a1.87,1.87,0,0,0,0-.25.47.47,0,0,1,.08-.33.14.14,0,0,0,0-.12,2.21,2.21,0,0,1-.08-.35.59.59,0,0,1,.06-.45.11.11,0,0,0,0-.1,6.13,6.13,0,0,0-.18-.61c0-.12-.1-.23-.12-.34a1.16,1.16,0,0,1,0-.49,3.5,3.5,0,0,1,.3-.84.27.27,0,0,1,.08-.1c.15-.08.27-.22.45-.24s.07,0,0-.09a.11.11,0,0,1,0-.14l.18-.12a.14.14,0,0,1,.22.12.23.23,0,0,0,.08.17,1.06,1.06,0,0,0,.23.19.54.54,0,0,1,.27.44l0,.22a.45.45,0,0,0,.09.33l.21.29c0,.07,0,.16.05.22s.18.23.28.34,0,0,0,0h0s0,0,0,0h0v0c0,.08.07.16.1.25a.22.22,0,0,1,0,.16s-.07-.07-.1-.11a2.1,2.1,0,0,0-.4-.44.1.1,0,0,0-.07,0c-.05,0-.08,0,0,.07l0,.07s.07.08,0,.11-.07,0-.11,0h0s0,0,0,0h0a2.62,2.62,0,0,1-.24-.34h0a.17.17,0,0,0,0-.1h0a.63.63,0,0,1,0-.3.5.5,0,0,0-.09-.44,1.32,1.32,0,0,0-.33-.29l-.08-.06a.77.77,0,0,0-.28-.19l-.12-.1s-.06,0-.09,0h0s0,0,0,0h0a2,2,0,0,1-.31.13l0,0a.82.82,0,0,0-.06.28,1.53,1.53,0,0,1-.05.6.69.69,0,0,0,0,.35.5.5,0,0,1,0,.21.22.22,0,0,0,.08.26.28.28,0,0,1,.09.16.28.28,0,0,0,.06.14c.06.12.15.24.08.4a.09.09,0,0,0,0,.07.29.29,0,0,1,0,.27c-.06.16-.11.31-.16.46a.36.36,0,0,0,0,.32.11.11,0,0,1,0,.16.1.1,0,0,0,0,.17.42.42,0,0,1,0,.1.48.48,0,0,1,0,.39.11.11,0,0,0,0,.11l.16.26c.07.12,0,.19-.06.26s0,0,0,.07l0,.22a3.32,3.32,0,0,0,0,.77.64.64,0,0,0,0,.24.15.15,0,0,0,0,.07c.09.12.09.12,0,.24l0,0h0c.06,0,.1,0,.14,0a.12.12,0,0,1,0,.15.3.3,0,0,0,0,.29v.06l-.15.54-.22.85s0,0,0,.05a0,0,0,0,1,0,0s0,0,0,0a.23.23,0,0,1,0-.14c0-.19.08-.38.13-.57a.29.29,0,0,0,0-.16,1.73,1.73,0,0,1,0-.32.1.1,0,0,0-.07-.1c-.11,0-.12-.1,0-.19s0-.06,0-.11-.06-.13,0-.19l.15-.06c-.12,0-.13-.05-.12-.17s0-.05-.05-.06a.09.09,0,0,1-.06-.1,2,2,0,0,1,0-.43,3.12,3.12,0,0,0-.15-1.32,7.12,7.12,0,0,0-.31-.76.19.19,0,0,0-.17-.12c-.08,0-.1,0-.08-.11a.09.09,0,0,0-.07-.14.42.42,0,0,1-.14-.09.13.13,0,0,1,0-.22.24.24,0,0,0,.12-.22c0-.08,0-.17,0-.26s0-.09-.07-.11-.11-.1-.12-.19-.09-.46-.14-.7a.05.05,0,0,0,0-.06h0s0,0,0,0a.42.42,0,0,0-.09-.14,0,0,0,0,0,0,0h0a1.33,1.33,0,0,1-.13-.33.44.44,0,0,0-.06-.25,1,1,0,0,0-.23-.53.18.18,0,0,0-.17-.06.23.23,0,0,1-.21-.06h0a1.45,1.45,0,0,1-.17-.26.08.08,0,0,1,0-.12.27.27,0,0,0,.08.18s0,0,.06,0,0,0,.05,0a0,0,0,0,0,.06,0s0,0,0-.07a.14.14,0,0,0-.1-.1s-.07,0-.08-.06a.15.15,0,0,1,.13,0,1.24,1.24,0,0,1,.18.14s.07.05.1.08.12,0,.17,0,0-.09,0-.13a1.79,1.79,0,0,0-.2-.39,0,0,0,0,0-.06,0s0,.05,0,.08-.13.12-.2.16a.15.15,0,0,1-.23,0l0-.11a.61.61,0,0,0-.13.46.62.62,0,0,1,0,.27h0a.59.59,0,0,0-.22.25,2.21,2.21,0,0,1-.18.34s0,.06,0,.09a1.23,1.23,0,0,1,0,.27.43.43,0,0,0,.12.39,1.1,1.1,0,0,0,.42.24.49.49,0,0,1,.32.53l-.07.25s0,0,0,0,0,0,0,0-.06-.22-.07-.33-.1-.22-.26-.21l-.16,0a.12.12,0,0,0-.14,0l-.14.05c-.07,0-.14,0-.21,0s0,0,0,0h0c-.1-.06-.1,0-.12.08a2.09,2.09,0,0,0,0,.56,1.36,1.36,0,0,1-.11.69.61.61,0,0,1-.09.16s0-.06,0-.09a.33.33,0,0,0,0-.22c-.06,0-.06,0-.06.07v.23s0,.05-.06,0a.17.17,0,0,1,0-.12,1.5,1.5,0,0,1,0-.37.79.79,0,0,0,0-.34l0,0s0,.05,0,0,0,0,0-.05l0-.31a.28.28,0,0,0-.12-.23.36.36,0,0,1-.19-.27s0,0-.07,0h0c-.05,0-.05,0-.06.05a.59.59,0,0,1,0,.13s0,0-.06-.05-.05,0-.06,0a.72.72,0,0,0,0,.46l0,.28a.19.19,0,0,1-.07.12s0,0,0-.05a2.18,2.18,0,0,0-.2-.61.33.33,0,0,1,0-.24,1.78,1.78,0,0,0,.16-.51.62.62,0,0,0-.24-.47s-.06,0-.09,0a1.49,1.49,0,0,1-.2.15.08.08,0,0,0,0,.1.14.14,0,0,1-.09.14.32.32,0,0,0-.1.1c0,.11-.1.22-.14.33a.69.69,0,0,0,0,.4,1.3,1.3,0,0,0,.14.32.67.67,0,0,1,.07.18c0,.1,0,.2,0,.3a.65.65,0,0,1,0,.24c-.06.23-.1.46-.14.69a.31.31,0,0,1,0,.12h0a.41.41,0,0,0-.08.19l-.06.2s0,0,0,0a2.87,2.87,0,0,1,0-.41c0-.16,0-.32,0-.47l0-.06a.14.14,0,0,0,0-.06,1,1,0,0,0-.11-.74,1.4,1.4,0,0,1-.2-.43s0,0,0,0a.42.42,0,0,0,.06.35.71.71,0,0,1,0,.29,1.3,1.3,0,0,0,0,.44,2.34,2.34,0,0,1,0,.26.16.16,0,0,0,0,.12.12.12,0,0,1,0,.18s0,0,0,.05a4.82,4.82,0,0,0-.38.51.18.18,0,0,0,0,.1,3.46,3.46,0,0,0-.35,1.13,5.09,5.09,0,0,0-.07,1.29c0,.11,0,.14-.14.15A.29.29,0,0,1,537.89,432.38Zm-4-8.89s0,0,0,0,0,0,0,0,0,0,0,0Zm-.08.13a0,0,0,0,0,0,0s0,0,0,0v0s0,0,0,0,0,0,0,0Zm0,0s0,0,0,0,0,0,0,0,0,0,0,0Zm1.49,2.64h0s0,0,0,0l.05-.05a.71.71,0,0,0,.4-.32s0,0,0,0,.07,0,0-.08,0,0-.08,0a.23.23,0,0,0-.24.12l-.06.06c-.27.23-.56.44-.84.65a3,3,0,0,0-.56.57.39.39,0,0,0-.08.25c0,.06.06,0,.08,0a.73.73,0,0,0,0-.09c0-.05.11-.07.15-.12a.66.66,0,0,1,.34-.2.08.08,0,0,1,.11,0,1.11,1.11,0,0,1,0,.25.1.1,0,0,0,.06.14c.06,0,.1,0,.11-.1a1.35,1.35,0,0,0,0-.28.81.81,0,0,1,.32-.67s.09,0,.11-.09h0S535.27,426.32,535.27,426.3Zm9.13-3.85,0,0-.12-.12c-.07-.06-.12-.05-.15,0a.52.52,0,0,0,0,.51s0,0,0,0,0,0,0,0a.65.65,0,0,1,0-.24s0,0,0-.06a.08.08,0,0,1,.07,0,.09.09,0,0,1,0,.09,2,2,0,0,1,0,.34,1.22,1.22,0,0,1-.14.56v0h0l.11-.06a.46.46,0,0,1,.38,0l.23.07a1.18,1.18,0,0,1,.29.3s0,.07,0,.1,0,0-.06,0a.52.52,0,0,0-.1-.11.26.26,0,0,0-.36,0,.18.18,0,0,0-.17.07.61.61,0,0,0-.18.27.18.18,0,0,1-.08.09c-.09,0-.13.12-.2.18.09,0,.12.05.15.11a.08.08,0,0,0,.09,0,3.86,3.86,0,0,0,.73-.23.14.14,0,0,0,.1-.07c0-.05.1-.11.18-.1l0,0a.3.3,0,0,0,0-.29l-.27-.33a1.57,1.57,0,0,1-.19-.26,1.8,1.8,0,0,0-.29-.39.92.92,0,0,1-.13-.21c0-.08,0-.11-.09-.15Zm-6,3.39h0s0,0,0,0a.8.8,0,0,1,.27-.36.58.58,0,0,0,.16-.19.52.52,0,0,1,.41-.31c.22,0,.44,0,.66,0a.53.53,0,0,0,.41-.16.32.32,0,0,0,.06-.39.34.34,0,0,1,0-.41c.11-.19.19-.39.29-.59a.36.36,0,0,0,0-.23.92.92,0,0,1,0-.49,1.45,1.45,0,0,0,0-.55.61.61,0,0,0-.08-.27c0-.05-.07-.06-.11,0a.09.09,0,0,0,0,.1.2.2,0,0,1,0,.2c-.07.13-.13.25-.19.38a.43.43,0,0,0,0,.45.2.2,0,0,1,0,.22c-.07.15-.15.3-.23.45s0,.09-.09.07-.07-.06-.09-.1a.31.31,0,0,1,0-.1,1,1,0,0,0,0-.43s0,0,0-.05,0,0,0,0a.2.2,0,0,0-.07.16.67.67,0,0,1-.18.47,3.6,3.6,0,0,0-.45.58.24.24,0,0,1-.1.1,1.64,1.64,0,0,0-.3.29l0,0a.14.14,0,0,0-.09.15.6.6,0,0,1-.05.3,1,1,0,0,1-.18.32.3.3,0,0,0-.06.18.21.21,0,0,1,0,.13s0,0,0,.07.07.06.12,0S538.37,425.85,538.36,425.84Zm-4.17-2.34h0a1,1,0,0,0-.14.21l-.16.27s0,.08,0,.11.08,0,.11,0a2,2,0,0,0,.21-.3.57.57,0,0,0,.15-.31,2.18,2.18,0,0,1,.11-.27,0,0,0,0,0,0-.06.23.23,0,0,1,0-.16s0-.07-.07-.08a.08.08,0,0,0-.09.07.41.41,0,0,0,0,.11.66.66,0,0,1-.08.39S534.17,423.47,534.19,423.5Zm-.11,2.07h0l-.21.16v0l.34-.21a.69.69,0,0,0,.2-.13s0,0,.07,0,.11,0,.13-.07l0-.07s.06,0,.07.06a1.34,1.34,0,0,1,.12.3,5.24,5.24,0,0,1,0-.57s.06,0,.1-.05h0c.1,0,.1,0,0-.1a.32.32,0,0,1,0-.09.89.89,0,0,1,.07-.58l0,0a5.08,5.08,0,0,1,.33-.66s0,0,0,0h0a1.59,1.59,0,0,0-.22.13s0,0-.07,0,0-.05,0-.08,0-.05,0-.09a.64.64,0,0,0-.17.35l-.16.43s0,0,0,0h0a1.82,1.82,0,0,0-.16.31,3.17,3.17,0,0,1-.53.95Zm4.41-3.75a1.43,1.43,0,0,0-.39.53l.06-.06a2.78,2.78,0,0,1,.26-.34.19.19,0,0,0,.07-.12h0Zm-2,.13c0-.11-.06-.21,0-.31a1.33,1.33,0,0,0-.49.59.87.87,0,0,0-.12.34l0,.14c0,.14-.09.24-.25.26a.11.11,0,0,0-.09.07s0,0,0,.06,0,0,.06,0a1,1,0,0,0,.65-.31,1.67,1.67,0,0,1,.54-.45.53.53,0,0,0,.26-.43s0,0,0-.05,0,0-.05,0a.77.77,0,0,0-.22.32.16.16,0,0,1-.07.11,3.62,3.62,0,0,1-.32.22.08.08,0,0,1-.1,0s0,0,0-.06a.66.66,0,0,0,.19-.39A.19.19,0,0,0,536.54,422Zm-.26-.52a1.25,1.25,0,0,1,.26-.07.73.73,0,0,0,.45-.21.48.48,0,0,0,.09-.11s0,0,0-.06,0,0-.05,0l-.06,0a.6.6,0,0,1-.3.14l-.32,0a1.09,1.09,0,0,1-.44,0,.26.26,0,0,0-.26.2,4.68,4.68,0,0,0-.06,1.12c0,.12-.13.17-.13.28s.19,0,.22-.13a.38.38,0,0,0,0-.1c0-.17.08-.33.11-.5a1,1,0,0,1,.17-.36A4.11,4.11,0,0,1,536.28,421.43Zm3.43.89a.36.36,0,0,0-.17-.21s-.07,0-.12,0h0a.49.49,0,0,0-.3.19,1.88,1.88,0,0,0-.24.44.29.29,0,0,0,0,.32l0,0a.21.21,0,0,0,.06.24.11.11,0,0,1,0,.07.07.07,0,0,0,.11,0l.09-.06a2.9,2.9,0,0,0,.49-.66A.61.61,0,0,0,539.71,422.32Zm-2.1,3.5a1.45,1.45,0,0,1-.16.5.37.37,0,0,0-.05.2.08.08,0,0,0,0,.05s0,0,.05,0a.6.6,0,0,0,.14-.21,2.63,2.63,0,0,1,.08-.3c.06-.13.11-.26.18-.38a3,3,0,0,0,.31-1.14.38.38,0,0,1,.11-.24.84.84,0,0,0,.27-.4.41.41,0,0,0-.06-.37.68.68,0,0,1-.09-.66,1.66,1.66,0,0,1,.45-.66.62.62,0,0,0,.18-.36s.05-.12,0-.14-.09.06-.11.11a.81.81,0,0,1-.39.46,1.05,1.05,0,0,0-.48.54,2,2,0,0,0-.08.33,2.8,2.8,0,0,1-.13.41.58.58,0,0,1-.08.18l-.27.29c-.12.12-.13.17-.07.32a.23.23,0,0,1,0,.14c0,.1,0,.12.09.15s.05,0,0,.07a2,2,0,0,1-.14.34.28.28,0,0,0,0,.37l0,0A.59.59,0,0,1,537.61,425.82Zm4.72-2a.57.57,0,0,0,0-.13s0,0,0-.05,0,0,0,0a1.43,1.43,0,0,0-.23.26,0,0,0,0,0,0,.07.07.07,0,0,1,0,.11,2.83,2.83,0,0,1-.24.25.69.69,0,0,0-.2.25,4.43,4.43,0,0,1-.47.6.24.24,0,0,1-.18.1l-.27,0c-.08,0-.09,0-.07-.12l0-.09c0-.06,0-.16-.07-.17s-.08,0-.11.08l-.15.24a.34.34,0,0,0,0,.35,1.13,1.13,0,0,1,.09.28.7.7,0,0,0,.6.58s.1,0,.11.08a.52.52,0,0,0,.14.22.48.48,0,0,1,.12.22,1.2,1.2,0,0,1,.08.27s0,.05,0,.05,0,0,0-.05a.23.23,0,0,0,0-.2,1.72,1.72,0,0,1-.11-.67.21.21,0,0,1,0-.11,3.6,3.6,0,0,0,.39-.57,1.44,1.44,0,0,0,.17-.45.35.35,0,0,0-.08-.34.26.26,0,0,1,0-.37l.21-.22A.52.52,0,0,0,542.33,423.8Zm-3.15,3.39a.67.67,0,0,0,.14.4s0,.05.06,0a.23.23,0,0,0,0-.2.19.19,0,0,1,0-.16,2.3,2.3,0,0,1,.12-.58A1,1,0,0,1,540,426c.14-.07.14-.11.1-.26s0-.05,0-.08a.55.55,0,0,1,0-.38.81.81,0,0,1,.12-.14s0,0,0-.06a0,0,0,0,0-.06,0,.39.39,0,0,0-.3.27,2.8,2.8,0,0,0-.09.31.12.12,0,0,1-.06.08s-.05,0-.05,0-.08-.36.11-.49v0s0-.05,0-.07a0,0,0,0,0-.07,0l-.15.13a.47.47,0,0,0-.17.47.67.67,0,0,1,0,.2,6.18,6.18,0,0,1-.2,1.14C539.19,427.11,539.19,427.16,539.18,427.19Zm.55-5.38c.24,0,.57-.31.53-.55,0-.09,0-.18,0-.26a.32.32,0,0,1,0-.27.3.3,0,0,0-.08-.44.08.08,0,0,0-.08,0s0,0-.05.08a.1.1,0,0,0,0,.07c.09.1.1.13,0,.25a5.26,5.26,0,0,1-.27.47.11.11,0,0,1-.16.06.09.09,0,0,0-.11,0l-.13.13a.27.27,0,0,0-.06.21C539.44,421.68,539.54,421.84,539.73,421.81Zm-2.2.41v-.17a.07.07,0,0,0,0-.07.15.15,0,0,1-.09-.13l-.06-.16s0-.05,0-.05a0,0,0,0,0,0,.05,3.11,3.11,0,0,0,.06.44c0,.11,0,.18-.06.25s0,0,0,.06a.25.25,0,0,1-.24.16.05.05,0,0,0,0,0,1.54,1.54,0,0,0-.47.37.48.48,0,0,0-.11.24.06.06,0,0,0,0,.06s0,0,.06,0l0,0a3,3,0,0,1,.45-.35.24.24,0,0,1,.12,0,.33.33,0,0,0,.22-.11C537.43,422.6,537.59,422.44,537.53,422.22Zm1.41,6.81a1.78,1.78,0,0,1,0-.46c0-.12,0-.24,0-.36a.07.07,0,0,0,0-.06.06.06,0,0,0-.07,0,.21.21,0,0,0,0,.11,1.82,1.82,0,0,1,0,.33,4.35,4.35,0,0,1-.18.71.35.35,0,0,0,0,.2c0,.05,0,.07.08,0a.53.53,0,0,0,.16-.2.2.2,0,0,1,0-.08A.31.31,0,0,0,538.94,429Zm-5-6a.07.07,0,0,0,0-.06s-.06,0-.08,0a1.69,1.69,0,0,0-.12.28.37.37,0,0,1-.08.18.38.38,0,0,0-.07.21s0,.07.05,0a.26.26,0,0,0,.14-.17,1.66,1.66,0,0,1,.15-.39A.28.28,0,0,0,533.92,423Zm2.36-3.16a3.07,3.07,0,0,0-.2.52s0,.05,0,.05a.17.17,0,0,0,.14-.06c0-.15,0-.3,0-.45S536.29,419.87,536.28,419.84Zm-2.25,3.4a.81.81,0,0,0,.18-.4,0,0,0,0,0,0,0,0,0,0,0,0,0,0l0,.06A2.42,2.42,0,0,1,534,423.24Zm5.9-.51c0-.11.14-.22,0-.33C539.93,422.51,539.94,422.62,539.93,422.73Zm-6,.59s.06,0,.06-.06,0,0,0,0A.07.07,0,0,0,534,423.32Zm.24-.58v0s0,0,0,0a0,0,0,0,0,0,0Zm-.38,3h0Z" transform="translate(-530.48 -418.12)"/><path class="cls-1" d="M545.21,420.21l0,0a.53.53,0,0,0,.28-.37.19.19,0,0,1,.1-.1s.15,0,.12-.09a1.31,1.31,0,0,1,.1-.65.44.44,0,0,1,.23-.28c0,.19-.1.36-.11.54s0,.08,0,.12a.05.05,0,0,0,0,0s0,0,0,0l0-.05s0,0,0,0,0,0,0,.05a1.5,1.5,0,0,1,0,.37.4.4,0,0,0,.08.33.15.15,0,0,0,.06.09.78.78,0,0,0,.33.32.11.11,0,0,0,.13,0,.41.41,0,0,1,.22,0,.73.73,0,0,1,.41.18l.13.08a1.44,1.44,0,0,1,.52.49,1.3,1.3,0,0,1,.16.48.78.78,0,0,0,.07.3.37.37,0,0,1,0,.18c0,.08,0,.16,0,.24a.35.35,0,0,1-.06.14s0,.07-.08.05,0-.05,0-.08a.43.43,0,0,0,0-.11v-.07a1.68,1.68,0,0,0-.21-.63A1.48,1.48,0,0,0,547,421h0s-.06,0-.09-.06c-.25-.12-.53-.14-.79-.27a1.7,1.7,0,0,1,.44.72.39.39,0,0,0,.1.19c.11.11.17.26.29.36a1,1,0,0,1,.21.31.19.19,0,0,1,0,.28c-.06.07-.15.08-.22.13s-.07,0-.07,0,0-.06,0-.08a.1.1,0,0,0,0-.1.59.59,0,0,0-.14-.35.45.45,0,0,0-.25-.18.78.78,0,0,0-.22,0l-.14,0c-.07,0-.08,0-.05.09s.14.13.22.19.08.07.13,0,0,0,.05,0,0,.06,0,.09l0,0a.22.22,0,0,0-.14,0,.23.23,0,0,1-.18,0l-.08,0a1.36,1.36,0,0,1-.48-.34,4,4,0,0,0-.36-.55.13.13,0,0,1-.05-.09.12.12,0,0,0-.11-.1s-.11,0-.13-.1-.22-.26-.37-.35a.09.09,0,0,1-.06,0,.74.74,0,0,1,0-.33.56.56,0,0,0,.09.19c.06.08.12,0,.19,0a.9.9,0,0,0,.32-.13l.13-.05s.07-.07,0-.11A.14.14,0,0,1,545.21,420.21Zm.16.65a.19.19,0,0,1-.08-.07s-.11,0-.16,0a.07.07,0,0,0,0,.11,2.07,2.07,0,0,0,.25.15.49.49,0,0,1,.18.14,1.51,1.51,0,0,1,.18.26.48.48,0,0,0,.14.2s.07.05.1,0,0,0,0,0a.09.09,0,0,1,.13-.05l.08,0a.48.48,0,0,0,.24.06.12.12,0,0,0-.06-.09l-.3-.2a6.93,6.93,0,0,1-.58-.5A.14.14,0,0,0,545.37,420.86Zm1.51-.08s0,0,0,0a2.22,2.22,0,0,1,.39.23,2.3,2.3,0,0,1,.46.42.21.21,0,0,0,.1.06h0s0,0,0-.06-.09-.12-.13-.18a1.82,1.82,0,0,0-1-.7,2.13,2.13,0,0,0-.49-.15.13.13,0,0,1-.11-.06,2.8,2.8,0,0,1-.28-.31s-.06-.06-.11,0,0,.07,0,.11a1.51,1.51,0,0,0,.37.43s.06,0,.06.07a.06.06,0,0,0,.09.05.52.52,0,0,1,.25,0l.31.07Zm-.91-.21s-.07,0-.1,0a.39.39,0,0,1-.21-.08s0,0,0,0,0,0,0,.06,0,0,.06.05Zm0,0h0Zm0,0Zm0,0Z" transform="translate(-530.48 -418.12)"/><path class="cls-2" d="M534.88,425.88h0c.1,0,.11,0,.09-.11s.12-.09.15-.17a.5.5,0,0,1,.13-.19,7,7,0,0,0,.57-.52s0,0,0-.06h0s0,0,0,0a.77.77,0,0,0,.33-.34,1.29,1.29,0,0,1,.15-.17.35.35,0,0,0,.12-.23.71.71,0,0,0,0-.32c.21,0,.24.14.22.34a.85.85,0,0,1-.21.46c0,.05-.09.11-.14.17a.51.51,0,0,1-.21.2h0c-.18.23-.46.37-.64.59,0,0-.06.07-.06.11a.22.22,0,0,1-.1.13c-.26.23-.56.42-.84.63a2.92,2.92,0,0,1-.37.24.75.75,0,0,0-.2.15,2,2,0,0,0-.42.63c-.13.42-.32.81-.48,1.21a1,1,0,0,0,0,.18,2.28,2.28,0,0,0-.14.77c0,.38,0,.77,0,1.15a.06.06,0,0,0,0,.06c0,.13,0,.22-.09.32a.05.05,0,0,1,0,0,.22.22,0,0,1-.21-.11.06.06,0,0,1,0-.06.43.43,0,0,0,.1-.39,7.85,7.85,0,0,1,0-.84,3.14,3.14,0,0,1,0-.61s0-.06,0-.07-.07-.07-.07-.13a1.66,1.66,0,0,1,.14-.43,4.89,4.89,0,0,0,.34-.82,1.88,1.88,0,0,1,.38-.71,1.56,1.56,0,0,1,.45-.4C534.21,426.38,534.55,426.14,534.88,425.88Z" transform="translate(-530.48 -418.12)"/><path class="cls-2" d="M544.79,420.67c-.07,0-.13.07-.19,0a.56.56,0,0,1-.09-.19.74.74,0,0,0,0,.33.09.09,0,0,0,.06,0c.15.09.31.17.37.35s.08.08.13.1a.83.83,0,0,0,.14.22c.09.14.18.26.27.39s0,.06,0,.08-.05,0-.08,0l0,0-.15-.18s-.05-.07-.1-.09a.08.08,0,0,0,0,.07.93.93,0,0,0,.29.36c.13.09.13.1.17-.06h0a1.36,1.36,0,0,0,.48.34l.08,0a1.48,1.48,0,0,0,.24.26,1.92,1.92,0,0,0,.39.17l-.15.23a.14.14,0,0,1-.14.06,1.55,1.55,0,0,1-.55-.18.3.3,0,0,1-.12-.15.32.32,0,0,0-.22-.2c-.08,0-.12-.1-.19-.16a.45.45,0,0,1-.09-.1c0-.05-.09,0-.11,0s0,.13-.14.05a.81.81,0,0,1-.16-.16s0-.05-.09,0a.72.72,0,0,0-.19-.2l0,0c0-.12-.11-.14-.21-.16a.33.33,0,0,1-.16-.07.12.12,0,0,0-.17,0,1.56,1.56,0,0,1-.2.16.11.11,0,0,1-.08,0s0-.05,0-.07a.14.14,0,0,1,0-.07,2.22,2.22,0,0,0,.18-.8.57.57,0,0,1,.18-.34s.05,0,.07,0,0,.05,0,.08a1.84,1.84,0,0,0,0,.47,1.32,1.32,0,0,0,.22.5,7.84,7.84,0,0,0,.54.61l0,0a0,0,0,0,0,.06,0,0,0,0,0,0,0-.05l-.07-.12a4.23,4.23,0,0,1-.44-.71,2.26,2.26,0,0,1-.17-.52,1.84,1.84,0,0,1,0-.62.18.18,0,0,1,.08-.14c.08,0,.12-.13.2-.16A2,2,0,0,0,544.79,420.67Z" transform="translate(-530.48 -418.12)"/><path class="cls-2" d="M545.17,430.47l0-.22s0-.05,0-.07.13-.14.06-.26l-.16-.26a.11.11,0,0,1,0-.11.48.48,0,0,0,0-.39.42.42,0,0,0,0-.1.1.1,0,0,1,0-.17.11.11,0,0,0,0-.16.36.36,0,0,1,0-.32c.05-.15.1-.3.16-.46a.29.29,0,0,0,0-.27.09.09,0,0,1,0-.07c.07-.16,0-.28-.08-.4a.28.28,0,0,1-.06-.14.28.28,0,0,0-.09-.16.22.22,0,0,1-.08-.26.5.5,0,0,0,0-.21.69.69,0,0,1,0-.35,1.53,1.53,0,0,0,.05-.6.82.82,0,0,1,.06-.28l0,0a2,2,0,0,0,.31-.13l0,.12a.33.33,0,0,0-.19.16c-.06.12,0,.23.14.22v0a.86.86,0,0,1-.14.13.15.15,0,0,0,0,.11c0,.06,0,.13,0,.19a.94.94,0,0,1,0,.44.76.76,0,0,0,.07.55c.06.11.12.23.19.34a.41.41,0,0,1,.08.19c0,.11,0,.23,0,.35s0,.09,0,.11.06-.05.09-.07a3.28,3.28,0,0,1-.15.51.52.52,0,0,0,0,.47c0,.07,0,.11-.07.13s-.06.06,0,.12a1.3,1.3,0,0,1,.11.35.29.29,0,0,1,0,.24s0,.07,0,.11l.17.29c.08.13.06.19-.08.26a.08.08,0,0,0,0,.08c0,.4,0,.8.07,1.19a.4.4,0,0,0,.1.26.11.11,0,0,1,0,.15.38.38,0,0,1-.3.22.3.3,0,0,1,0-.29.12.12,0,0,0,0-.15c0-.05-.08-.05-.14,0h0l0,0c.09-.12.09-.12,0-.24a.15.15,0,0,1,0-.07A2.64,2.64,0,0,0,545.17,430.47Z" transform="translate(-530.48 -418.12)"/><path class="cls-2" d="M550.37,429.35a.94.94,0,0,0-.08-.34c0-.09-.12-.12-.2-.07s-.14.06-.23,0l-.33-.34a1.14,1.14,0,0,0-.17-.15h0l0,0h0a.77.77,0,0,0-.16-.15v-.09a.23.23,0,0,0-.13-.21.68.68,0,0,1-.27-.26c-.08-.13-.17-.26-.24-.39s-.11-.1-.15-.16-.22-.19-.32-.3a1.81,1.81,0,0,0-.34-.28,2.75,2.75,0,0,1-.28-.19c-.17-.14-.36-.28-.34-.54,0-.08,0-.15,0-.23s0-.06.06,0a2.61,2.61,0,0,0,.42.16.57.57,0,0,0,.16.41,1,1,0,0,0,.38.3c0,.07,0,.14,0,.21a.21.21,0,0,0,.24.21.06.06,0,0,1,.08.06V427c0,.08.05.12.12.1a.2.2,0,0,1,.24.08,1.87,1.87,0,0,0,.47.37s0,0,0,0h0a1,1,0,0,0,.36.45.37.37,0,0,1,.17.2.77.77,0,0,0,.32.39c.11.07.16.21.27.29s.15.19.26.24a.12.12,0,0,0,.15,0c.09-.07.17-.05.22.06a1,1,0,0,1,.07.29.24.24,0,0,1-.15.27l-.06,0a.48.48,0,0,1-.14-.24.34.34,0,0,0-.1-.16c-.09-.08-.13-.07-.19,0Z" transform="translate(-530.48 -418.12)"/><path class="cls-1" d="M541,429.32a1.4,1.4,0,0,1-.18-.52.92.92,0,0,1,.07-.49.67.67,0,0,1,.07-.18.24.24,0,0,1,0,.14l0,.25a.37.37,0,0,0,0,.29.78.78,0,0,0,.27.27h.06a.32.32,0,0,0,.27-.24,3.57,3.57,0,0,1,.16-.46v0c.16-.13.09-.3.07-.47l0-.19s0-.06,0-.07,0,0,0,0,0,.05,0,.08l0,.1a3.07,3.07,0,0,1,.11.91.64.64,0,0,1-.14.41.64.64,0,0,0-.1.24,1.12,1.12,0,0,1-.16.43s0,0,0,.06a2.81,2.81,0,0,0,0,.71,2.65,2.65,0,0,0,.08.63,2,2,0,0,1,.08.35s0,0,0,0,0,0,0,0l-.1-.12a.77.77,0,0,1-.11-.3.52.52,0,0,0-.06-.16,1,1,0,0,0-.11-.28c-.15-.19-.11-.42-.15-.63a1.69,1.69,0,0,0-.08-.5s0,0,0,0h0s0,0,0,0h0s0,0,0,0h0s0,0,0,0h0A.47.47,0,0,0,541,429.32Zm.21.05v0a3.85,3.85,0,0,0,.22.52,0,0,0,0,0,.06,0,.06.06,0,0,0,0-.05.09.09,0,0,0,0-.07.74.74,0,0,1,.15-.5,2.06,2.06,0,0,0,.16-.37.05.05,0,0,0,0-.07,0,0,0,0,0-.07,0s0,0,0,.06a1,1,0,0,1-.08.21.22.22,0,0,1-.34.12C541.26,429.26,541.22,429.29,541.22,429.37Z" transform="translate(-530.48 -418.12)"/><path class="cls-1" d="M549.24,427.52a1.87,1.87,0,0,1-.47-.37.2.2,0,0,0-.24-.08c-.07,0-.12,0-.12-.1v-.07a.06.06,0,0,0-.08-.06.21.21,0,0,1-.24-.21c0-.07,0-.14,0-.21l0-.05a.09.09,0,0,1,.09-.05s0,.05,0,.08a.2.2,0,0,1,0,.07c0,.11.07.16.17.11a.6.6,0,0,1,.21-.08.58.58,0,0,1,.19,0h0l0,0c.13.17.25.35.39.51l.06.09s0,.08.11.06.14,0,.17.13l0,.06s0,0,0,0h0a.24.24,0,0,0,.09.13,6,6,0,0,0,.47.41,3.5,3.5,0,0,1,.3.24,1.21,1.21,0,0,0,.28.18.21.21,0,0,1,.14.16.16.16,0,0,0,0,.08l.32.27a.26.26,0,0,0,.15.07c.06,0,.07.06.08.1s0,0-.05,0a.3.3,0,0,1-.11-.06l-.43-.28a.13.13,0,0,0-.11,0,.13.13,0,0,1-.14-.05c-.18-.15-.35-.29-.52-.45s-.37-.26-.55-.39a.73.73,0,0,1-.18-.17.54.54,0,0,0-.22-.15h0A0,0,0,0,0,549.24,427.52Zm-.5-.74a0,0,0,0,0,0,.05.4.4,0,0,0,.09.17l.18.14a0,0,0,0,0,.07,0s0,0,0-.07a1,1,0,0,0-.29-.28Z" transform="translate(-530.48 -418.12)"/><path class="cls-2" d="M549.3,427.09c-.14-.16-.26-.34-.39-.51a.25.25,0,0,0,.17,0,.68.68,0,0,1,.27-.07.25.25,0,0,1,.2.13c.15.2.31.39.46.6a.14.14,0,0,0,.16.07.11.11,0,0,1,.13.08.61.61,0,0,0,.21.33c.29.27.6.51.91.76a.71.71,0,0,0,.18.08.23.23,0,0,1,.13.17.11.11,0,0,0,.06.09,2.72,2.72,0,0,0,.42.34l0,0c.07,0,.09,0,.11.09s-.08,0-.11,0a4.26,4.26,0,0,1-.5-.32.13.13,0,0,0-.13,0c-.06,0-.1,0-.13,0-.26-.22-.52-.45-.79-.66a4.21,4.21,0,0,1-.48-.35,2.13,2.13,0,0,0-.49-.36s0,0,0,0h0s0,0,0,0l0-.06c0-.11-.06-.13-.17-.13S549.39,427.11,549.3,427.09Z" transform="translate(-530.48 -418.12)"/><path class="cls-1" d="M545.59,427.92s0,.08-.09.07,0-.07,0-.11,0-.24,0-.35a.41.41,0,0,0-.08-.19c-.07-.11-.13-.23-.19-.34a.76.76,0,0,1-.07-.55.94.94,0,0,0,0-.44c0-.06,0-.13,0-.19a.15.15,0,0,1,0-.11.86.86,0,0,0,.14-.13c.1-.06.23-.07.33-.14h0l.11,0a.4.4,0,0,1,.36.28.58.58,0,0,1,0,.39.94.94,0,0,0,0,.41.27.27,0,0,0,.17.19,1,1,0,0,1,.38.37.11.11,0,0,1,0,0,0,0,0,0,1-.05,0,2.65,2.65,0,0,1-.6-.38.49.49,0,0,1-.13-.28c0-.13,0-.26-.06-.4a.37.37,0,0,0-.07-.16c-.07-.15-.18-.17-.31-.06a.27.27,0,0,0-.05.23c0,.1,0,.2.05.3a.58.58,0,0,1,0,.29l-.05.05a.07.07,0,0,0,0,.11.49.49,0,0,1,0,.16.28.28,0,0,0,.06.15.57.57,0,0,1,.12.6A.78.78,0,0,0,545.59,427.92Z" transform="translate(-530.48 -418.12)"/><path class="cls-2" d="M548.1,425.61a.84.84,0,0,1-.22-.24c-.07-.11-.09-.11-.22-.09a.35.35,0,0,1-.3-.11l-.17-.14a.32.32,0,0,1-.08-.46,1.18,1.18,0,0,1,.42-.31L548,424a.09.09,0,0,1,.11,0l-.25.16a.77.77,0,0,0-.23.21.34.34,0,0,0,.08.51l.14.11a.55.55,0,0,0,.28.15.13.13,0,0,0,.12,0,.13.13,0,0,1,.17.05,1.37,1.37,0,0,0,.67.54l.08,0a.23.23,0,0,1,.17.08.58.58,0,0,0,.35.21.45.45,0,0,1,.31.23h0a.56.56,0,0,0-.4-.19l-.32,0A.71.71,0,0,1,549,426a5.12,5.12,0,0,0-.75-.35s-.05,0-.08,0h0S548.11,425.62,548.1,425.61Z" transform="translate(-530.48 -418.12)"/><path class="cls-1" d="M536.23,426.33a4.14,4.14,0,0,0-.12.86c0,.06,0,.13-.09.12s0,0,0,.05l0,.1a.11.11,0,0,1-.09.07.57.57,0,0,0-.51.4s0,.06,0,.08,0,.1-.1.07-.05,0-.05,0a2.41,2.41,0,0,1-.42.75l-.08.12s0,.06-.06,0a.06.06,0,0,1,0-.08s0-.05,0-.07a2.46,2.46,0,0,1,.36-.58.67.67,0,0,0,.14-.47,1.14,1.14,0,0,1,0-.26,4.42,4.42,0,0,1,.14-.52.47.47,0,0,1,.22-.22l.12-.07s0,0,0,0h0s0,0,.06,0,0,0,0,.07l0,.06a.34.34,0,0,0-.1.16.51.51,0,0,0,.4-.35v0h0a2.54,2.54,0,0,0,.22-.6.32.32,0,0,1,.25-.24.25.25,0,0,1,0,.12A1,1,0,0,0,536.23,426.33Zm-.42,1a.23.23,0,0,0,.16-.14c0-.05.09-.1,0-.17s-.12,0-.17.06a.87.87,0,0,1-.3.16.31.31,0,0,0-.24.26s0,.08,0,.1.07,0,.09,0a.4.4,0,0,1,.24-.16Z" transform="translate(-530.48 -418.12)"/><path class="cls-2" d="M539.82,420.1a1,1,0,0,1,0,.3.21.21,0,0,1,0,.15.41.41,0,0,0-.07.11.21.21,0,0,1-.22.12.72.72,0,0,0-.42.11.48.48,0,0,1-.2.07.16.16,0,0,0-.13.13.26.26,0,0,1-.12.18.15.15,0,0,0-.06.14s0,.06-.06.06h-.1c-.08,0-.17,0-.24,0s-.05,0-.08,0a1,1,0,0,0-.47.2.5.5,0,0,1-.13.07,1.25,1.25,0,0,0,0-.47,1.33,1.33,0,0,1,.49-.18h0c.12-.1.26,0,.4-.08s.07,0,.07-.06,0-.09.07-.13a.35.35,0,0,0,.14-.24s0-.07.06-.07a3.27,3.27,0,0,0,.47-.18.93.93,0,0,1,.33,0c.06,0,.09,0,.12-.07Z" transform="translate(-530.48 -418.12)"/><path class="cls-2" d="M551.76,430.75a.6.6,0,0,0-.1-.23.05.05,0,0,1,0,0,.66.66,0,0,0-.45-.49.16.16,0,0,1-.1-.24l.1-.2a.08.08,0,0,1,.12,0,.27.27,0,0,1,.14.16,1,1,0,0,0,.22.37,1.32,1.32,0,0,1,.2.32.16.16,0,0,0,.17.1.13.13,0,0,1,.12.06,2.86,2.86,0,0,0,.36.42,2,2,0,0,1,.31.78.33.33,0,0,1-.16-.17,1.38,1.38,0,0,0-.17-.29s0,0,0,0,0,0,0,.06a1.38,1.38,0,0,1,.09.53,1.22,1.22,0,0,1,0,.54s0,0,0,.05l0,0a.49.49,0,0,1,0-.24,1.76,1.76,0,0,0,0-.56.86.86,0,0,0-.31-.52.53.53,0,0,0-.2-.16h0A.42.42,0,0,0,551.76,430.75Z" transform="translate(-530.48 -418.12)"/><path class="cls-1" d="M551.76,430.75a.42.42,0,0,1,.1.2s0,0,0,0h0a.92.92,0,0,0,.09.28.49.49,0,0,1,0,.21c-.16-.14-.2-.35-.33-.49,0,0,0,0,0,0a1.92,1.92,0,0,1,.07.89,1.27,1.27,0,0,1-.06.18,0,0,0,0,1,0,0s0,0,0,0a1.93,1.93,0,0,1,0-.24c0-.16,0-.32,0-.47a.81.81,0,0,0-.25-.46.9.9,0,0,0-.23-.2c-.06,0-.07-.08-.09-.14a.47.47,0,0,0-.11-.25s0,0,0-.05a.6.6,0,0,0-.42-.45.17.17,0,0,1-.09-.25,1.09,1.09,0,0,0,.08-.15c.06-.1.1-.11.19,0a.34.34,0,0,1,.1.16.48.48,0,0,0,.14.24,3.11,3.11,0,0,1,.25.38.11.11,0,0,0,.11.07.21.21,0,0,1,.18.11C551.5,430.47,551.65,430.6,551.76,430.75Z" transform="translate(-530.48 -418.12)"/><path class="cls-1" d="M532,422.25s0-.08,0-.13a.07.07,0,0,0,.1,0c0-.08.14,0,.19,0s0,.23.14.3.1.14.17.2a.69.69,0,0,0,.42.1.25.25,0,0,0,.17.06c.12,0,.17-.08.17-.22s0-.07,0-.1a.24.24,0,0,0,.24-.2s0-.08.07-.07,0,.06,0,.1,0,0,0,.06a1.42,1.42,0,0,0-.08.18.13.13,0,0,0,0,.12.17.17,0,0,1,0,.18.38.38,0,0,0-.09.15.12.12,0,0,0,0,.13s0,.06,0,.08a1.14,1.14,0,0,1-.13.3.09.09,0,0,1-.06.06,1.14,1.14,0,0,0-.16.15l0,0a.2.2,0,0,0-.11.23s0,.05,0,.05,0,0,0,0a.08.08,0,0,1,0-.05c0-.13,0-.27,0-.4s0,0,0-.07,0-.11-.07-.16a.26.26,0,0,1-.05-.12.39.39,0,0,0-.06-.11,4.35,4.35,0,0,1-.5-.55s-.06-.06-.1-.05A.15.15,0,0,1,532,422.25Zm1.07.87,0,.07a.53.53,0,0,1,0,.22.05.05,0,0,0,0,0s0,0,.05,0l0-.1a.36.36,0,0,0-.06-.45s0-.05-.08,0S533,423,533.06,423.12Z" transform="translate(-530.48 -418.12)"/><path class="cls-1" d="M543.81,429.42a.73.73,0,0,1-.49-.62c0-.29,0-.59-.08-.89a.78.78,0,0,0-.18-.43l0,0a1.08,1.08,0,0,0-.12-.24.49.49,0,0,0,0-.2V427a.22.22,0,0,0-.13-.25.23.23,0,0,1,.11-.29.33.33,0,0,1,.17,0,3.5,3.5,0,0,1,.3.24.52.52,0,0,1,.17.22,1.29,1.29,0,0,1,0,.7,1.08,1.08,0,0,0,0,.4.62.62,0,0,1,0,.27,1.08,1.08,0,0,0,0,.64h0v0a.71.71,0,0,0,.29.39.08.08,0,0,0,.08,0h0s0,0,0,0h0s0,.06-.07.06Zm-.55-1.91h0a.1.1,0,0,0,0,.09s.05.07.09,0a.42.42,0,0,0,0-.31.73.73,0,0,1-.12-.32s0,0,0,0a.26.26,0,0,1-.07-.15c0-.1-.08-.11-.16,0a.14.14,0,0,0,0,.17,1.49,1.49,0,0,0,.13.25c0,.1.15.18.14.32h0Z" transform="translate(-530.48 -418.12)"/><path class="cls-1" d="M546.53,419.45a1.17,1.17,0,0,1,.28.11.23.23,0,0,1,.09.11.41.41,0,0,0,.39.27.1.1,0,0,1,.11.09c0,.09.1.13.18.18a1,1,0,0,1,.2.16.69.69,0,0,0,.11.13h0v0a1.12,1.12,0,0,0,0-.13s0,0,0-.05,0,0,0,0l.1.09s.09,0,.12,0a.43.43,0,0,0,0-.25c0-.08-.1-.11-.15-.18s0,0,0,0a.81.81,0,0,1,.14.12s0,0,0,0h0l.1.45a.19.19,0,0,1-.19.16h0v0a2.92,2.92,0,0,1,.29.48.16.16,0,0,1,0,.15c-.11.09-.18.07-.22-.07a.77.77,0,0,0-.07-.16l-.26-.37a.19.19,0,0,0-.07-.08s0,0,0,0h0s0,0,0,0h0s0,0-.05-.06a5.3,5.3,0,0,0-.54-.39.21.21,0,0,0-.13,0,1.51,1.51,0,0,1-.37-.06.13.13,0,0,1-.1-.06,1.1,1.1,0,0,1-.2-.28C546.25,419.6,546.25,419.42,546.53,419.45Zm.26.35s0,0,0,0l-.1-.09a.15.15,0,0,0-.16-.08c-.09,0-.11.05-.08.12a.35.35,0,0,0,.28.22s0,0,.06,0a.68.68,0,0,0,.31.14.08.08,0,0,0,.08,0,.08.08,0,0,0,0-.09s0-.07-.08-.09-.18-.13-.29-.13Z" transform="translate(-530.48 -418.12)"/><path class="cls-2" d="M537,425.87s0-.05,0-.07.06-.05.08,0a1.1,1.1,0,0,1,.09.14.53.53,0,0,1,0,.33,4,4,0,0,1-.23.66.7.7,0,0,1-.11.21.37.37,0,0,0-.08.33,1.59,1.59,0,0,1-.05.78.72.72,0,0,0,0,.48,1.09,1.09,0,0,1,0,.18.84.84,0,0,0,0,.27c0,.2,0,.41,0,.61a.74.74,0,0,1,0,.12.93.93,0,0,1-.12-.39l0-.64v0c-.11-.2,0-.4,0-.6s0-.21.07-.32a.82.82,0,0,0,0-.35.55.55,0,0,1,.08-.43,3,3,0,0,0,.39-1.1A.43.43,0,0,0,537,425.87Z" transform="translate(-530.48 -418.12)"/><path class="cls-1" d="M537.9,427.14l.08-.05s0,0,.06,0,0,.05,0,.06l-.07.08a.52.52,0,0,0-.13.28l0,.11h0c-.09.2-.09.2,0,.3h0v0a.6.6,0,0,1,.11-.47s0-.05,0,0,0,0,0,.06a.65.65,0,0,0,0,.31.69.69,0,0,0,0,.13.27.27,0,0,1,0,.34,1.54,1.54,0,0,0-.19.44.16.16,0,0,1-.05.08s0-.08,0-.15a2.38,2.38,0,0,0-.19.59c0,.23-.07.45-.09.68,0,0,0,.09,0,.08s0-.05,0-.08l0-.72v0h0a.22.22,0,0,0,0-.14.2.2,0,0,1,.06-.23.39.39,0,0,0,0-.48s0,0,0-.08a.58.58,0,0,1,0-.48.83.83,0,0,1,.18-.33C537.78,427.32,537.82,427.21,537.9,427.14Z" transform="translate(-530.48 -418.12)"/><path class="cls-2" d="M548.18,420.09A.81.81,0,0,0,548,420a.41.41,0,0,0-.11-.07l-.12-.13s0-.06-.09,0-.16-.09-.26-.07a.12.12,0,0,1,.1,0s0,0,0,0v0l-.28-.22a.21.21,0,0,0-.23,0c-.06,0,0,.11,0,.17a1,1,0,0,1-.26-.39.17.17,0,0,1,.19-.24,1.18,1.18,0,0,1,.37.14.13.13,0,0,1,.06.09.24.24,0,0,0,.17.2c.05,0,.07.08.13.09a.23.23,0,0,0,.3.2,2.51,2.51,0,0,1,.66.64,3.2,3.2,0,0,1,.3.45.24.24,0,0,1,.05.14.11.11,0,0,1-.07.13c-.07,0-.13,0-.14-.06a2.34,2.34,0,0,0-.36-.61.58.58,0,0,0-.21-.23h0S548.19,420.09,548.18,420.09Z" transform="translate(-530.48 -418.12)"/><path class="cls-2" d="M534.36,422.35a1.26,1.26,0,0,1-.13.26.69.69,0,0,1,0-.32c0-.1,0-.2.07-.3a.81.81,0,0,1,.12-.29s0-.05,0-.07,0,0-.07,0,0,0-.05.06-.19.31-.28.48a3.21,3.21,0,0,0-.12.33,2.1,2.1,0,0,1-.18.37.06.06,0,0,1-.05,0,2.29,2.29,0,0,0,.17-.62.13.13,0,0,1,0-.06c.14-.24.2-.53.35-.77a.68.68,0,0,0,.1-.27,1.37,1.37,0,0,1,.38-.66,1.86,1.86,0,0,1,.41-.33.64.64,0,0,0,.13-.1s.07-.08.1-.05,0,.07,0,.09a5.07,5.07,0,0,0-.36.45,1.73,1.73,0,0,0-.29.65c0,.2-.12.4-.18.6s-.05.28-.11.4A.14.14,0,0,0,534.36,422.35Z" transform="translate(-530.48 -418.12)"/><path class="cls-2" d="M546.53,419.45c-.28,0-.28.15-.19.32a1.1,1.1,0,0,0,.2.28.13.13,0,0,0,.1.06,1.51,1.51,0,0,0,.37.06.21.21,0,0,1,.13,0,5.3,5.3,0,0,1,.54.39s.06,0,.05.06a3.54,3.54,0,0,0-1-.37.6.6,0,0,1-.21-.08,1.71,1.71,0,0,0-.39-.17.4.4,0,0,1-.08-.33,1.5,1.5,0,0,0,0-.37s0-.05,0-.05,0,0,0,0l0,.05s0,0,0,0a.05.05,0,0,1,0,0s0-.08,0-.12a.14.14,0,0,1,.11,0c.09,0,.1,0,.09-.09s0-.06,0-.1a.74.74,0,0,1,0-.33c0-.1.05-.2.08-.29a.54.54,0,0,1,.21-.27c0,.13-.06.23-.08.35a.72.72,0,0,0,0,.33s0,.06,0,.06,0,0,.05-.05a.14.14,0,0,1,0-.08s0,0,0,.07,0,.27,0,.41A.65.65,0,0,0,546.53,419.45Z" transform="translate(-530.48 -418.12)"/><path class="cls-2" d="M537.37,420.68a1.16,1.16,0,0,1-.37,0h0a4,4,0,0,1-.52.09c-.06,0-.07,0,0-.06a1.65,1.65,0,0,1,.16-.42h0a4.78,4.78,0,0,1,.75-.08l.08,0,.06-.06a.44.44,0,0,1,.38-.19.28.28,0,0,0,.27-.21s0-.08,0-.12a.08.08,0,0,1,.1,0c0,.1,0,.21,0,.32a.21.21,0,0,1-.09.1,1.63,1.63,0,0,0-.62.45A.72.72,0,0,0,537.37,420.68Z" transform="translate(-530.48 -418.12)"/><path class="cls-2" d="M543.93,429.34a.08.08,0,0,1-.08,0,.71.71,0,0,1-.29-.39v0h0c0-.22,0-.43,0-.64a.62.62,0,0,0,0-.27,1.08,1.08,0,0,1,0-.4,1.29,1.29,0,0,0,0-.7.52.52,0,0,0-.17-.22,3.5,3.5,0,0,0-.3-.24.2.2,0,0,1,.21,0,.76.76,0,0,0,.09.09s.05.08.1.06.13.12.21.16h0s0,0,0,0a.42.42,0,0,1,.09.14s0,0,0,0h0c0,.11,0,.2,0,.31a4.58,4.58,0,0,1,0,.64.5.5,0,0,0,0,.27.2.2,0,0,1,0,.13,1.15,1.15,0,0,0,0,.61A1,1,0,0,0,543.93,429.34Z" transform="translate(-530.48 -418.12)"/><path class="cls-2" d="M540.69,420.55a4.45,4.45,0,0,1-.53-.62,1.67,1.67,0,0,1-.25-.4,1.57,1.57,0,0,0-.37-.55.51.51,0,0,0-.14-.51l0,0c0-.06,0-.09-.06-.14s.06,0,.08,0a1.78,1.78,0,0,1,.49.66v0a1.7,1.7,0,0,0,.41.58c.09.11.17.23.26.35a.26.26,0,0,0,.12.11.08.08,0,0,1,.05.07A.67.67,0,0,1,540.69,420.55Z" transform="translate(-530.48 -418.12)"/><path class="cls-2" d="M547.94,419.33a2.92,2.92,0,0,1-.37-.24s-.07-.07-.05-.13a.14.14,0,0,1,.17-.12.37.37,0,0,1,.16.09,1.92,1.92,0,0,0,.42.28s.05,0,.08.06a1.21,1.21,0,0,0,.3.25.22.22,0,0,1,.13.2,2.66,2.66,0,0,1,.07.39c0,.07-.06.11-.1.15s-.09,0-.12,0a.73.73,0,0,1-.19-.3,1.1,1.1,0,0,0-.33-.49s-.05-.05-.09-.05h0s0,0,0,0Z" transform="translate(-530.48 -418.12)"/><path class="cls-2" d="M545.45,426.69a.58.58,0,0,0,0-.29.47.47,0,0,0,0-.33,1.18,1.18,0,0,1,0-.2c.13-.11.24-.09.31.06a.19.19,0,0,0,0,.13,1.85,1.85,0,0,1,.07.41.33.33,0,0,1-.11.26.09.09,0,0,0,0,.13h0a2,2,0,0,0,.24.51.69.69,0,0,1,0,.47.25.25,0,0,1-.1.21.76.76,0,0,1,0-.21,1.09,1.09,0,0,1,0-.18.71.71,0,0,0-.1-.35A1.67,1.67,0,0,1,545.45,426.69Z" transform="translate(-530.48 -418.12)"/><path class="cls-2" d="M545.2,432.9l.15-.54a.41.41,0,0,0,.25-.13c0-.05.09-.07.14,0a.11.11,0,0,1,0,.16.33.33,0,0,0-.06.29.45.45,0,0,1,0,.16c-.12.44-.23.88-.35,1.33a1,1,0,0,1,0,.14,0,0,0,0,1,0,0s0,0,0,0a.15.15,0,0,1,0-.11c0-.21.1-.42.14-.63a.34.34,0,0,0,0-.2.89.89,0,0,1,0-.28C545.32,433,545.31,432.91,545.2,432.9Z" transform="translate(-530.48 -418.12)"/><path class="cls-2" d="M541.68,431.51l.1.12s0,0,0,0,0,0,0,0a2,2,0,0,0-.08-.35,2.65,2.65,0,0,1-.08-.63,2.81,2.81,0,0,1,0-.71s0-.05,0-.06a1.12,1.12,0,0,0,.16-.43.64.64,0,0,1,.1-.24.64.64,0,0,0,.14-.41,3.07,3.07,0,0,0-.11-.91l0-.1s0-.06,0-.06,0,0,0,.05a2.64,2.64,0,0,1,.17.67,5.61,5.61,0,0,1,0,.58.56.56,0,0,1-.12.3,1,1,0,0,0-.15.4.89.89,0,0,1-.14.33.19.19,0,0,0,0,.1,3.65,3.65,0,0,0,0,.81,2.92,2.92,0,0,0,.11.72,1.43,1.43,0,0,1,.07.28s0,0,0,0,0,0,0,0A1,1,0,0,1,541.68,431.51Z" transform="translate(-530.48 -418.12)"/><path class="cls-2" d="M533.17,423.69a1.14,1.14,0,0,1,.16-.15.09.09,0,0,0,.06-.06,1.14,1.14,0,0,0,.13-.3l0,0a.21.21,0,0,1,0,.19,1.34,1.34,0,0,0-.16.37c0,.18-.1.35-.14.53s0,.17.14.19-.07.19-.11.29a1.07,1.07,0,0,1-.4.49.15.15,0,0,1-.07,0,2.53,2.53,0,0,0-.44.21.41.41,0,0,1-.25.07s0,0,.06-.06a4.31,4.31,0,0,0,.62-.51,1,1,0,0,0,.27-.58,1.61,1.61,0,0,1,.1-.36A.36.36,0,0,0,533.17,423.69Z" transform="translate(-530.48 -418.12)"/><path class="cls-2" d="M535.21,427a4.42,4.42,0,0,0-.14.52,1.14,1.14,0,0,0,0,.26.58.58,0,0,0-.12.29c0,.09,0,.1-.09,0s-.06,0-.07,0a1.11,1.11,0,0,1-.12.3c-.11.15-.19.33-.31.47a1,1,0,0,0-.1.17s0,0,0,0,0,0,0-.05a.16.16,0,0,1,0-.1,2.51,2.51,0,0,1,.32-.52.93.93,0,0,0,.23-.58c0-.08,0-.15,0-.23a.35.35,0,0,1,0-.08,1.11,1.11,0,0,0,.21-.42c0-.12,0-.24.09-.36a1.45,1.45,0,0,1,.25-.11.74.74,0,0,1-.12.17.86.86,0,0,0-.07.1s0,0,0,0,0,0,.06,0Z" transform="translate(-530.48 -418.12)"/><path class="cls-2" d="M532,422.25a.15.15,0,0,0,.15.21s.07,0,.1.05a4.35,4.35,0,0,0,.5.55.39.39,0,0,1,.06.11.26.26,0,0,0,.05.12c-.12.08-.2.2-.31.28a.14.14,0,0,0,0,.14s0,.06,0,.09a.26.26,0,0,1-.06-.22.39.39,0,0,0,0-.15.39.39,0,0,1,0-.24c0-.07,0-.13-.07-.16s0,0,0-.06a.68.68,0,0,0-.18-.27c-.15-.16-.29-.33-.44-.51a.14.14,0,0,0-.14-.06.14.14,0,0,1-.13-.2h0c0-.08,0-.12.09-.16a.28.28,0,0,1,.11.22.22.22,0,0,0,.12.21c.06,0,.1,0,.15-.05Z" transform="translate(-530.48 -418.12)"/><path class="cls-2" d="M543.9,419.61l0-.11c.15-.08.25-.09.26.14,0,0,0,.08,0,.13s0,.08.09,0a5.63,5.63,0,0,0,.45-.38s0-.08,0-.13a.32.32,0,0,1,.22-.23c.07,0,.11.05.11.12a.38.38,0,0,1-.19.35.74.74,0,0,0-.13.12c0-.08-.1-.09-.19-.05a.23.23,0,0,0-.14.24.18.18,0,0,1-.08.13,2.66,2.66,0,0,0-.31.26c-.08.06-.11.05-.13-.05s0-.1,0-.15a.14.14,0,0,0-.07-.1A.39.39,0,0,0,543.9,419.61Z" transform="translate(-530.48 -418.12)"/><path class="cls-2" d="M549.51,422.93a1.33,1.33,0,0,1-.6.25.15.15,0,0,0-.09,0,.26.26,0,0,1-.27,0,.26.26,0,0,0-.24,0l0,0a.67.67,0,0,1-.53.1.25.25,0,0,0-.19.07.23.23,0,0,1-.26,0c-.08,0-.1-.13-.13-.2s0-.05,0-.07a.43.43,0,0,1,.23-.12,1.6,1.6,0,0,0,.23,0,.27.27,0,0,0,.3.21.33.33,0,0,0,.17-.07.2.2,0,0,1,.2,0h.25a.11.11,0,0,0,.11,0l.26-.15a.2.2,0,0,1,.17,0,.32.32,0,0,0,.35,0Z" transform="translate(-530.48 -418.12)"/><path class="cls-2" d="M537.9,427.14c-.08.07-.12.18-.19.24a.83.83,0,0,0-.18.33.58.58,0,0,0,0,.48s0,.05,0,.08a.39.39,0,0,1,0,.48.2.2,0,0,0-.06.23.22.22,0,0,1,0,.14h0v0a2.35,2.35,0,0,0-.09.53,3.05,3.05,0,0,0-.05.41s0,.05,0,.07,0,0,0-.08c0-.29,0-.57,0-.86,0,0,0,0,0-.07a.28.28,0,0,1,.09-.29.33.33,0,0,0,.06-.4,1,1,0,0,1-.12-.49.8.8,0,0,1,0-.15,1.75,1.75,0,0,0,.13-.28s0,0,0,0,.07,0,.09-.09a.57.57,0,0,1,.27-.28S537.9,427.1,537.9,427.14Z" transform="translate(-530.48 -418.12)"/><path class="cls-2" d="M543.68,419.28a.93.93,0,0,1-.38.6c-.22.14-.45.27-.68.4l-.23.13a.8.8,0,0,1,.2-.46.18.18,0,0,1,.07-.05A9,9,0,0,0,543.68,419.28Z" transform="translate(-530.48 -418.12)"/><path class="cls-2" d="M550.77,422.73a.34.34,0,0,1,.09-.12,1.7,1.7,0,0,0,.26-.34.32.32,0,0,0,.34-.13,1.28,1.28,0,0,0,.15-.25.42.42,0,0,1,.17-.18.62.62,0,0,0,.31-.31l.06-.08c0,.07,0,.11,0,.16a2.76,2.76,0,0,1-.18.39,1.64,1.64,0,0,1-.26.37,1.43,1.43,0,0,0-.24.31c-.06.09-.1.11-.21.07a.25.25,0,0,0-.12,0Z" transform="translate(-530.48 -418.12)"/><path class="cls-2" d="M548.11,420.72a.19.19,0,0,0,.19-.16,1,1,0,0,0,.19.21.24.24,0,0,1,.07.12,2.36,2.36,0,0,1,.15.58.49.49,0,0,0,0,.16.14.14,0,0,1,0,.11c0,.12,0,.23-.06.35a.44.44,0,0,1-.09.18,0,0,0,0,1,0,0s0,0,0-.05a.55.55,0,0,0,0-.42,1.46,1.46,0,0,0-.18-.45.16.16,0,0,0,0-.15,2.92,2.92,0,0,0-.29-.48Z" transform="translate(-530.48 -418.12)"/><path class="cls-2" d="M533.41,429.21a2,2,0,0,1,.2-.73l.27-.57a.44.44,0,0,1,.08-.11c.15-.18.34-.32.51-.49a3.26,3.26,0,0,1-.17.47.05.05,0,0,0,0,0h0a.79.79,0,0,0-.17.31h0s0,0,0,0-.13.07-.1.16a1.12,1.12,0,0,1-.36.39.56.56,0,0,0-.15.27A.68.68,0,0,1,533.41,429.21Z" transform="translate(-530.48 -418.12)"/><path class="cls-2" d="M536.23,426.33a1,1,0,0,1,.1-.41.25.25,0,0,0,0-.12c0-.12.1-.24.13-.36h0a2.09,2.09,0,0,0,.13-.35l.21-.16s0,0,.06,0,0,0,0,0a3.49,3.49,0,0,1-.2.7l-.14.33a.54.54,0,0,0,0,.21,2.77,2.77,0,0,0-.2.46A1,1,0,0,1,536.23,426.33Z" transform="translate(-530.48 -418.12)"/><path class="cls-1" d="M538.14,432.61c.07,0,.11.06.09.14a.63.63,0,0,0,0,.45c0,.09,0,.15,0,.22a5.3,5.3,0,0,0,0,.69.49.49,0,0,1,0,.12s0,.07,0,.07,0,0,0-.06l0-.22c0-.08,0-.16-.06-.22a.17.17,0,0,1,0-.24.33.33,0,0,0,0-.29L538,433c0-.06,0-.12,0-.17a.15.15,0,0,0,0-.09s0-.09,0-.14.06,0,.09,0Z" transform="translate(-530.48 -418.12)"/><path class="cls-2" d="M547.17,426.77s0,0,0,0-.19-.22-.28-.34,0-.15-.05-.22l.06-.16a3,3,0,0,0,.31.4.85.85,0,0,0,.28.22,2.85,2.85,0,0,1,.7.59.74.74,0,0,1,.12.13s0,0,0,0,0,0,0,.06a.57.57,0,0,1,.13.21s0,0,0,0a1.93,1.93,0,0,0-.7-.6s0,0,0,0h0a0,0,0,0,0,0,0h0c0-.07-.08-.11-.12-.16l-.2-.17a.18.18,0,0,0-.09,0c-.06,0-.08,0-.06.07S547.17,426.73,547.17,426.77Z" transform="translate(-530.48 -418.12)"/><path class="cls-1" d="M531.91,422.14s-.09.09-.15.05a.22.22,0,0,1-.12-.21.28.28,0,0,0-.11-.22l-.1-.14a1.14,1.14,0,0,0-.15-.23.69.69,0,0,1-.18-.36s0-.08,0-.09,0,0,.07.06a.14.14,0,0,0,0,.06c.19.17.3.4.47.58a.28.28,0,0,0,.19.12.16.16,0,0,1,.12.22A.51.51,0,0,1,531.91,422.14Z" transform="translate(-530.48 -418.12)"/><path class="cls-2" d="M548,422.42a.43.43,0,0,1,0,.11s0,.06,0,.08.06,0,.08-.05a.35.35,0,0,0,.06-.14l.35,0c-.17.13-.31.3-.56.29l-.43,0-.36,0a2.09,2.09,0,0,1,.14-.17.35.35,0,0,1,.32-.12Z" transform="translate(-530.48 -418.12)"/><path class="cls-2" d="M531.28,421.39a1.14,1.14,0,0,1,.15.23.9.9,0,0,1-.14.2c-.07.05-.11.05-.16,0a.32.32,0,0,1-.08-.2.31.31,0,0,0-.07-.18c-.15-.19-.29-.39-.42-.59a.38.38,0,0,1-.08-.26s0,0,0-.05a0,0,0,0,1,0,0c0,.09.11.13.15.19a2.83,2.83,0,0,0,.2.28l.25.32S531.22,421.41,531.28,421.39Z" transform="translate(-530.48 -418.12)"/><path class="cls-2" d="M542.9,427.22a1.08,1.08,0,0,1,.12.24c0,.18-.06.33-.1.5a.7.7,0,0,0-.09-.35.49.49,0,0,0-.32-.53,1.1,1.1,0,0,1-.42-.24.43.43,0,0,1-.12-.39,1.23,1.23,0,0,0,0-.27s0-.06,0-.09a2.21,2.21,0,0,0,.18-.34.59.59,0,0,1,.22-.25s0,0,0,.07a.37.37,0,0,0-.09.19l-.17.24a.23.23,0,0,0,0,.16.34.34,0,0,1,0,.22.44.44,0,0,0,.13.45.85.85,0,0,0,.45.26A.41.41,0,0,1,542.9,427.22Z" transform="translate(-530.48 -418.12)"/><path class="cls-2" d="M538,433l.06.24a.33.33,0,0,1,0,.29.17.17,0,0,0,0,.24c0,.06,0,.14.06.22a1.8,1.8,0,0,0,0,.4,2.16,2.16,0,0,1,0,.36s0,.05,0,.06,0,0,0,0a2.32,2.32,0,0,1-.07-.38.24.24,0,0,0-.06-.15.14.14,0,0,1,0-.18.43.43,0,0,0,.07-.42,1.5,1.5,0,0,1-.06-.29.28.28,0,0,0-.07-.19.12.12,0,0,1,0-.13c0-.05.06,0,.1,0Z" transform="translate(-530.48 -418.12)"/><path class="cls-2" d="M551.07,422a.63.63,0,0,0-.28.3.38.38,0,0,1-.29.26c-.06,0-.1,0-.13-.05a1.34,1.34,0,0,0,.23-.25.41.41,0,0,0,.07-.15.39.39,0,0,1,.18-.28l.21-.16a.33.33,0,0,0,.14-.12.16.16,0,0,1,.12-.08.81.81,0,0,0,.21-.1s.07,0,0-.08,0,0,0-.05.07.12,0,.19-.24.22-.37.31S551.06,421.91,551.07,422Z" transform="translate(-530.48 -418.12)"/><path class="cls-2" d="M538.33,429.38a1.09,1.09,0,0,1-.08.47.11.11,0,0,0,0,.14.22.22,0,0,1,0,.18c0,.31-.11.61-.16.92s-.08.65-.11,1c0,.1,0,.19-.12.24a9.6,9.6,0,0,1,.18-1.31,5.81,5.81,0,0,0,.09-.58.29.29,0,0,0,0-.24.11.11,0,0,1,0-.12.49.49,0,0,0,.09-.33,1.36,1.36,0,0,1,0-.29C538.25,429.37,538.28,429.35,538.33,429.38Z" transform="translate(-530.48 -418.12)"/><path class="cls-2" d="M539.18,425.57l.09-.11a.07.07,0,0,1,0,.08,3.57,3.57,0,0,1-.16.46.19.19,0,0,0,0,.13.19.19,0,0,1,0,.13,6.25,6.25,0,0,0-.17.72.88.88,0,0,1-.1.35.11.11,0,0,0,0,.08,7.38,7.38,0,0,1-.16.94c0,.13,0,.25-.07.37a.59.59,0,0,1-.05.19.4.4,0,0,0,0,.19c0,.09,0,.1-.1.09.05-.2.1-.4.14-.61l.18-.94a.33.33,0,0,0,0-.14.2.2,0,0,1,0-.11,3.1,3.1,0,0,0,.19-.74,3.34,3.34,0,0,1,.1-.43.14.14,0,0,0,0-.11.29.29,0,0,1,0-.24A1.54,1.54,0,0,0,539.18,425.57Z" transform="translate(-530.48 -418.12)"/><path class="cls-2" d="M533.5,423.1a.12.12,0,0,1,0-.13.38.38,0,0,1,.09-.15.17.17,0,0,0,0-.18.13.13,0,0,1,0-.12,1.42,1.42,0,0,1,.08-.18s0,0,0-.06,0-.08,0-.1-.06,0-.07.07a.24.24,0,0,1-.24.2,3.13,3.13,0,0,0,.19-.51,5.07,5.07,0,0,1,.37-.64s0,0,0-.05,0,.07,0,.1a.86.86,0,0,0-.12.35l-.06.24a.53.53,0,0,0,0,.28.54.54,0,0,1-.06.3.94.94,0,0,0-.06.15A1.09,1.09,0,0,1,533.5,423.1Z" transform="translate(-530.48 -418.12)"/><path class="cls-2" d="M533,422.71a.69.69,0,0,1-.42-.1c-.07-.06-.11-.14-.17-.2a.23.23,0,0,1,.14,0,.21.21,0,0,0,.33-.17.15.15,0,0,1,.14-.16c.09,0,.13-.09.16-.18s0-.09.07-.08,0,.07,0,.11a.6.6,0,0,1-.09.22.14.14,0,0,0,0,.15.14.14,0,0,1,0,.17A1,1,0,0,0,533,422.71Z" transform="translate(-530.48 -418.12)"/><path class="cls-2" d="M548.57,422.66l.22-.19a.91.91,0,0,0,.21-.23s0-.05,0-.06,0,0,0,0h0s0,0,.05,0a1.32,1.32,0,0,0,.22-.18.87.87,0,0,1,.21-.17c.08,0,.12-.13.19-.2s0-.08.1-.1a.43.43,0,0,1-.06.17,2.41,2.41,0,0,1-1,.94A.48.48,0,0,1,548.57,422.66Z" transform="translate(-530.48 -418.12)"/><path class="cls-1" d="M533.16,432c0-.19,0-.36,0-.53a.2.2,0,0,0-.06-.16.19.19,0,0,1,0-.28c0-.06.12,0,.18,0a.1.1,0,0,1,.07.14.26.26,0,0,0,0,.21.62.62,0,0,1,0,.27c0,.15,0,.31-.09.45s0,.09-.08.08,0-.06-.05-.09Z" transform="translate(-530.48 -418.12)"/><path class="cls-2" d="M532.74,432.56s0-.06,0-.1a4,4,0,0,1,0-.6.24.24,0,0,0-.06-.21.18.18,0,0,1,0-.24c0-.09.11-.1.21-.06a.12.12,0,0,1,0,.18.11.11,0,0,0,0,.08.85.85,0,0,1,0,.59c0,.09,0,.17,0,.26A.14.14,0,0,1,532.74,432.56Z" transform="translate(-530.48 -418.12)"/><path class="cls-2" d="M541.15,421.55a.88.88,0,0,0,0,.28s0,.07,0,.08a.07.07,0,0,1-.09,0,.78.78,0,0,1,0-.14,1.23,1.23,0,0,0-.33-.56.11.11,0,0,1,0-.14.71.71,0,0,0,.06-.25,1,1,0,0,1,.31.52A.5.5,0,0,0,541.15,421.55Z" transform="translate(-530.48 -418.12)"/><path class="cls-2" d="M542.4,421.89c0,.05,0,.1,0,.15a.18.18,0,0,1-.09.13.35.35,0,0,0-.13.14c0,.06-.07.14-.14.12s0-.11,0-.17a2.57,2.57,0,0,1,.11-.48.46.46,0,0,0,0-.38.25.25,0,0,0,.08-.28,1.06,1.06,0,0,1,0-.19.06.06,0,0,1,.07,0,.48.48,0,0,1,.06.42,2.4,2.4,0,0,0-.13.59v0a.1.1,0,0,0,0,.1s.06,0,.08,0a.23.23,0,0,0,.1-.14A.1.1,0,0,1,542.4,421.89Z" transform="translate(-530.48 -418.12)"/><path class="cls-2" d="M541.41,422.49s0,0,0,0a1.93,1.93,0,0,0-.15-.86.09.09,0,0,1,0-.05.08.08,0,0,0,0-.08.45.45,0,0,1,0-.28c0-.07,0-.13,0-.21a.41.41,0,0,1,.08.14c0,.14.09.28.14.42a1.06,1.06,0,0,1,0,.5A1.63,1.63,0,0,1,541.41,422.49Z" transform="translate(-530.48 -418.12)"/><path class="cls-2" d="M541.47,428.65a1.36,1.36,0,0,0,.11-.69,2.09,2.09,0,0,1,0-.56c0-.07,0-.14.12-.08a1.84,1.84,0,0,0,0,.7,1.94,1.94,0,0,1,0,.48,3.79,3.79,0,0,1-.18.42C541.45,428.83,541.5,428.74,541.47,428.65Z" transform="translate(-530.48 -418.12)"/><path class="cls-2" d="M543.89,419.34a.35.35,0,0,1,.18-.28s.06,0,0-.06-.05,0-.07,0a1.62,1.62,0,0,1-.19,0,1.85,1.85,0,0,1,.18-.44.2.2,0,0,1,.15-.13.35.35,0,0,1,.23,0,.45.45,0,0,0-.17.13.28.28,0,0,0-.07.33.23.23,0,0,1-.08.25Z" transform="translate(-530.48 -418.12)"/><path class="cls-2" d="M547.93,427.56c.06,0,.11.1.2.1s0,0,0,0a4.3,4.3,0,0,0,.55.58s.07.06.07.1a1,1,0,0,1-.18-.1.22.22,0,0,0-.13,0,2.79,2.79,0,0,1-.38-.3s0,0,0-.06A1.4,1.4,0,0,1,547.93,427.56Z" transform="translate(-530.48 -418.12)"/><path class="cls-1" d="M547.56,419.64a.12.12,0,0,0-.1,0,.1.1,0,0,0,0,.1c0,.05,0,.06-.07,0a1,1,0,0,1-.34-.25c0-.06,0-.13,0-.17a.21.21,0,0,1,.23,0l.28.22Z" transform="translate(-530.48 -418.12)"/><path class="cls-2" d="M546.13,425.74a.4.4,0,0,0-.36-.28l.19-.09a1.32,1.32,0,0,1,.33.29.5.5,0,0,1,.09.44.63.63,0,0,0,0,.3.93.93,0,0,1-.05-.29A.57.57,0,0,0,546.13,425.74Z" transform="translate(-530.48 -418.12)"/><path class="cls-2" d="M536.32,419.61a1.47,1.47,0,0,1-.3-.08.27.27,0,0,0-.09-.31.71.71,0,0,0-.18-.12s0,0,0-.07,0,0,0,0a.73.73,0,0,0,.29.07.2.2,0,0,1,.1.08l.15.23A.28.28,0,0,1,536.32,419.61Z" transform="translate(-530.48 -418.12)"/><path class="cls-2" d="M541.33,424.33a.56.56,0,0,1,0,.12,0,0,0,0,1,0,0s0,0,0,0v0a1.31,1.31,0,0,0,0-.39.74.74,0,0,1,0-.33.43.43,0,0,0,0-.11s0-.07,0-.08,0,0-.06.05a1.24,1.24,0,0,1-.17.27.18.18,0,0,1,0-.16,1.44,1.44,0,0,0,.25-.39l0,0a.25.25,0,0,1,0,.23.77.77,0,0,0,0,.45.66.66,0,0,1,0,.31S541.3,424.3,541.33,424.33Z" transform="translate(-530.48 -418.12)"/><path class="cls-2" d="M538.36,425.89a.36.36,0,0,1,.18-.07h0c-.07.06-.12.12,0,.2a.08.08,0,0,1,0,.07,1.91,1.91,0,0,0,0,.79l0,.1a.07.07,0,0,1,0,0s0,0,0,0a2.47,2.47,0,0,1,0-.9A.17.17,0,0,0,538.36,425.89Z" transform="translate(-530.48 -418.12)"/><path class="cls-2" d="M532.9,423.52c0,.13,0,.27,0,.4a.08.08,0,0,0,0,.05s0,0,0,0,0,0,0-.05a.2.2,0,0,1,.11-.23c0,.12,0,.24-.11.32s0,0,0,.06a.11.11,0,0,1-.11.12.11.11,0,0,1-.13-.09.41.41,0,0,1,0-.11A4.25,4.25,0,0,0,532.9,423.52Z" transform="translate(-530.48 -418.12)"/><path class="cls-2" d="M545.21,420.21a.14.14,0,0,0,0,.17c.06,0,0,.08,0,.11l-.13.05a1.43,1.43,0,0,0-.21-.12.17.17,0,0,1-.1-.17c0-.08,0-.15,0-.22s0,0,0,.07a.16.16,0,0,0,.21.15Z" transform="translate(-530.48 -418.12)"/><path class="cls-2" d="M548.38,423.87a.12.12,0,0,1,.06-.12.92.92,0,0,1,.35-.19,1.66,1.66,0,0,1,.29-.1c-.07.07-.16.11-.15.23s0,0,0,0-.17.12-.26.1a.31.31,0,0,0-.19,0Z" transform="translate(-530.48 -418.12)"/><path class="cls-2" d="M548.39,418.81c.08,0,.15,0,.18.08a.2.2,0,0,1,0,.22.1.1,0,0,1-.1,0,.35.35,0,0,1-.2-.16C548.19,418.86,548.24,418.81,548.39,418.81Z" transform="translate(-530.48 -418.12)"/><path class="cls-2" d="M548.12,420.4c0,.06-.07.05-.12,0l-.1-.09s0,0,0,0,0,0,0,.05a1.12,1.12,0,0,1,0,.13v0a.69.69,0,0,1-.11-.13,1,1,0,0,0-.2-.16c-.08,0-.15-.09-.18-.18l.24,0,0,0a2.08,2.08,0,0,0,.43.3Z" transform="translate(-530.48 -418.12)"/><path class="cls-2" d="M539.08,428a.42.42,0,0,1-.06-.35s0,0,0,0a1.4,1.4,0,0,0,.2.43,1,1,0,0,1,.11.74.14.14,0,0,1,0,.06A1.18,1.18,0,0,0,539.08,428Z" transform="translate(-530.48 -418.12)"/><path class="cls-1" d="M547.94,419.33l0,0s0,0,0,0h0a.25.25,0,0,1,0,.27.23.23,0,0,1-.3-.2.14.14,0,0,1,.16-.12Zm0,.2a.09.09,0,0,0,0-.14s-.07,0-.1.06a.06.06,0,0,0,0,.09S547.88,419.57,547.9,419.53Z" transform="translate(-530.48 -418.12)"/><path class="cls-2" d="M546.67,426.88s.08.05.11,0,0-.07,0-.11l0-.07a.9.9,0,0,1,.46.46A4.71,4.71,0,0,1,546.67,426.88Z" transform="translate(-530.48 -418.12)"/><path class="cls-2" d="M540.94,424.57a.17.17,0,0,1-.08.16s0,0-.07,0,0,0,0-.06a2.42,2.42,0,0,0-.07-.47,1.42,1.42,0,0,1,0-.2.12.12,0,0,1,0-.15c0,.23.1.46.12.69,0,.06,0,.07.07,0Z" transform="translate(-530.48 -418.12)"/><path class="cls-2" d="M539.31,428.91c0,.15,0,.31,0,.47a2.87,2.87,0,0,0,0,.41s0,.08,0,0,0,.13,0,.19,0,0,0,0,0,0,0,0a3.93,3.93,0,0,1-.06-1A.61.61,0,0,1,539.31,428.91Z" transform="translate(-530.48 -418.12)"/><path class="cls-2" d="M538.14,432.61H538s-.07,0-.09,0,0,.1,0,.14a.15.15,0,0,1,0,.09.16.16,0,0,1-.15-.08c0-.06,0-.11,0-.16s0-.16.06-.24a.29.29,0,0,0,.25.09Z" transform="translate(-530.48 -418.12)"/><path class="cls-2" d="M546.7,420.46a.11.11,0,0,1-.13,0,.78.78,0,0,1-.33-.32A.58.58,0,0,1,546.7,420.46Z" transform="translate(-530.48 -418.12)"/><path class="cls-2" d="M541,428.81a.37.37,0,0,1,0-.29l0-.25s0,0,0,0,0,0,0,0a1.71,1.71,0,0,1,0,.39A.38.38,0,0,0,541,428.81Z" transform="translate(-530.48 -418.12)"/><path class="cls-2" d="M543.81,429.42h.07s.07,0,.07-.06a3,3,0,0,0,.26.21C544,429.63,543.93,429.51,543.81,429.42Z" transform="translate(-530.48 -418.12)"/><path class="cls-2" d="M548.85,426.53a.58.58,0,0,0-.19,0,.28.28,0,0,1,.06-.18.07.07,0,0,1,.08,0,.06.06,0,0,1,0,.06A1.09,1.09,0,0,0,548.85,426.53Z" transform="translate(-530.48 -418.12)"/><path class="cls-2" d="M542,421.46c0,.19,0,.27-.12.34A.39.39,0,0,1,542,421.46Z" transform="translate(-530.48 -418.12)"/><path class="cls-2" d="M538.7,429.9a.18.18,0,0,1,0-.1,4.82,4.82,0,0,1,.38-.51.06.06,0,0,1,0,.07Z" transform="translate(-530.48 -418.12)"/><path class="cls-2" d="M534.39,425.71c.08,0,.15-.07.23,0l0,0h0s.05.08,0,.11a.15.15,0,0,1-.16,0A.18.18,0,0,1,534.39,425.71Z" transform="translate(-530.48 -418.12)"/><path class="cls-2" d="M541.31,428.8v0a.88.88,0,0,0,.06-.27.33.33,0,0,1,0,.22s0,.07,0,.09,0,.11,0,.16A.27.27,0,0,1,541.31,428.8Z" transform="translate(-530.48 -418.12)"/><path class="cls-2" d="M546.37,426.5a2.62,2.62,0,0,0,.24.34.28.28,0,0,1-.21-.2Z" transform="translate(-530.48 -418.12)"/><path class="cls-2" d="M540.5,427.83a.72.72,0,0,1,0-.46s0-.07.06,0a.54.54,0,0,0-.09.32A1,1,0,0,0,540.5,427.83Z" transform="translate(-530.48 -418.12)"/><path class="cls-2" d="M537.87,427.9c-.11-.1-.11-.1,0-.3A.76.76,0,0,0,537.87,427.9Z" transform="translate(-530.48 -418.12)"/><path class="cls-2" d="M541.94,427.33l.14-.05a.12.12,0,0,1,.14,0C542.13,427.33,542,427.38,541.94,427.33Z" transform="translate(-530.48 -418.12)"/><path class="cls-2" d="M533.49,424.32s0-.06,0-.08a.25.25,0,0,0,.09-.22.07.07,0,0,1,0-.07.43.43,0,0,1,0,.25C533.54,424.22,533.54,424.29,533.49,424.32Z" transform="translate(-530.48 -418.12)"/><path class="cls-2" d="M533.34,422.55c0,.14-.05.2-.17.22Z" transform="translate(-530.48 -418.12)"/><path class="cls-1" d="M547.72,419.74s.06,0,.09,0l.12.13s0,0,0,0l-.16-.13s0,0,0,0Z" transform="translate(-530.48 -418.12)"/><path class="cls-2" d="M541.4,430.77a1,1,0,0,1,.11.28A.37.37,0,0,1,541.4,430.77Z" transform="translate(-530.48 -418.12)"/><path class="cls-2" d="M540.46,428.23a.19.19,0,0,0,.07-.12.17.17,0,0,1,0,.2S540.47,428.26,540.46,428.23Z" transform="translate(-530.48 -418.12)"/><path class="cls-2" d="M549.82,423.14s0,0,0,0a1.82,1.82,0,0,1,.25-.07A.75.75,0,0,1,549.82,423.14Z" transform="translate(-530.48 -418.12)"/><path class="cls-1" d="M541.57,422.28s.11,0,.12-.1,0,.09,0,.11S541.62,422.27,541.57,422.28Z" transform="translate(-530.48 -418.12)"/><path class="cls-2" d="M540.65,427.39a.59.59,0,0,0,0-.13s0-.07.06-.05a.47.47,0,0,0,0,.17S540.67,427.42,540.65,427.39Z" transform="translate(-530.48 -418.12)"/><path class="cls-2" d="M545.74,419.62c0,.13-.07.07-.12.09A.54.54,0,0,1,545.74,419.62Z" transform="translate(-530.48 -418.12)"/><path class="cls-2" d="M539.49,429.63a.41.41,0,0,1,.08-.19C539.56,429.51,539.56,429.58,539.49,429.63Z" transform="translate(-530.48 -418.12)"/><path class="cls-2" d="M537.85,427.61l0-.11.06-.07h0A.41.41,0,0,1,537.85,427.61Z" transform="translate(-530.48 -418.12)"/><path class="cls-2" d="M541,429.32a.47.47,0,0,1,.1.2A.54.54,0,0,1,541,429.32Z" transform="translate(-530.48 -418.12)"/><path class="cls-2" d="M549.6,423.22a.33.33,0,0,1,.19-.06A.6.6,0,0,1,549.6,423.22Z" transform="translate(-530.48 -418.12)"/><path class="cls-2" d="M540.76,427.2s0,0,.07,0S540.79,427.22,540.76,427.2Z" transform="translate(-530.48 -418.12)"/><path class="cls-2" d="M546.34,426.4a.17.17,0,0,1,0,.1A.1.1,0,0,1,546.34,426.4Z" transform="translate(-530.48 -418.12)"/><path class="cls-2" d="M546.61,426.84s0,0,0,0S546.61,426.86,546.61,426.84Z" transform="translate(-530.48 -418.12)"/><path class="cls-2" d="M541.11,429.51s0,0,0,0S541.1,429.53,541.11,429.51Z" transform="translate(-530.48 -418.12)"/><path class="cls-2" d="M547.19,426.8s0,0,0,0S547.2,426.79,547.19,426.8Z" transform="translate(-530.48 -418.12)"/><path class="cls-2" d="M542.39,420.41s0,0,0,0S542.37,420.41,542.39,420.41Z" transform="translate(-530.48 -418.12)"/><path class="cls-2" d="M537.89,427.43h0Z" transform="translate(-530.48 -418.12)"/><path class="cls-2" d="M541.72,427.32s0,0,0,0S541.73,427.32,541.72,427.32Z" transform="translate(-530.48 -418.12)"/><path class="cls-2" d="M550,426.3s0,0,0,0h0Z" transform="translate(-530.48 -418.12)"/><path class="cls-2" d="M548.86,426.54h0S548.86,426.53,548.86,426.54Z" transform="translate(-530.48 -418.12)"/><path class="cls-2" d="M547.73,420.65s0,0,0,0S547.73,420.67,547.73,420.65Z" transform="translate(-530.48 -418.12)"/><path class="cls-2" d="M547.75,420.67s0,0,0,0Z" transform="translate(-530.48 -418.12)"/><path class="cls-2" d="M547.72,419.74s0,0,0,0S547.71,419.76,547.72,419.74Z" transform="translate(-530.48 -418.12)"/><path class="cls-2" d="M544,429.36s0,0,0,0S544,429.34,544,429.36Z" transform="translate(-530.48 -418.12)"/><path class="cls-2" d="M547.2,426.82v0Z" transform="translate(-530.48 -418.12)"/><path class="cls-2" d="M539.57,429.44h0Z" transform="translate(-530.48 -418.12)"/><path class="cls-2" d="M541.12,429.55s0,0,0,0Z" transform="translate(-530.48 -418.12)"/><path class="cls-2" d="M541.14,429.57s0,0,0,0S541.14,429.59,541.14,429.57Z" transform="translate(-530.48 -418.12)"/><path class="cls-2" d="M541.15,429.6s0,0,0,0A.05.05,0,0,1,541.15,429.6Z" transform="translate(-530.48 -418.12)"/><path class="cls-2" d="M546.66,426.87h0S546.65,426.88,546.66,426.87Z" transform="translate(-530.48 -418.12)"/><path class="cls-2" d="M549.08,423.46h0Z" transform="translate(-530.48 -418.12)"/><path class="cls-2" d="M549.58,423.24s0,0,0,0S549.59,423.24,549.58,423.24Z" transform="translate(-530.48 -418.12)"/><path class="cls-2" d="M549.81,423.16v0S549.82,423.15,549.81,423.16Z" transform="translate(-530.48 -418.12)"/><path class="cls-2" d="M550.09,423h0Z" transform="translate(-530.48 -418.12)"/><path class="cls-2" d="M548.56,422.67h0Z" transform="translate(-530.48 -418.12)"/><path class="cls-2" d="M546.47,425.33a.54.54,0,0,0-.27-.44,1.06,1.06,0,0,1-.23-.19.23.23,0,0,1-.08-.17.14.14,0,0,0-.22-.12l-.18.12a.11.11,0,0,0,0,.14c0,.05,0,.08,0,.09s-.3.16-.45.24a.27.27,0,0,0-.08.1,3.5,3.5,0,0,0-.3.84,1.16,1.16,0,0,0,0,.49c0,.11.09.22.12.34a6.13,6.13,0,0,1,.18.61.11.11,0,0,1,0,.1.59.59,0,0,0-.06.45,2.21,2.21,0,0,0,.08.35.14.14,0,0,1,0,.12.47.47,0,0,0-.08.33,1.87,1.87,0,0,1,0,.25h0c-.06-.13-.15-.24-.11-.39a.94.94,0,0,0,0-.47.33.33,0,0,0,0-.15.54.54,0,0,1-.09-.37,3.39,3.39,0,0,0,0-.45,1.12,1.12,0,0,0-.31-.61,2.18,2.18,0,0,1-.35-.54.6.6,0,0,1-.07-.27.19.19,0,0,1,0-.12.14.14,0,0,0,0-.11c-.07-.17-.11-.35-.17-.52a2.87,2.87,0,0,0-.3-.67.14.14,0,0,0-.23,0,.41.41,0,0,0,0,.09.55.55,0,0,1-.14.19s-.08.08-.13,0,0-.09,0-.14a1.27,1.27,0,0,0,0-.92c-.06-.12-.09-.25-.14-.38a.06.06,0,0,0-.05-.07c-.06,0,0,0,0-.08l.15-.16a.31.31,0,0,0,.1-.34s0-.1,0-.14a1.22,1.22,0,0,1-.07-.73.76.76,0,0,0,0-.3s0,0,0,0,0-.13,0-.15.15.08.16.14a.55.55,0,0,1,0,.22.37.37,0,0,0,0,.25c.11.16.18.33.28.5a.53.53,0,0,0,.16.2.2.2,0,0,1,.08.12,1.71,1.71,0,0,1,0,.39c0,.13.08.22.12.32s.06,0,.1,0a.31.31,0,0,0,.19-.35,1.07,1.07,0,0,0-.07-.19.12.12,0,0,1,0-.1c0-.06.05-.06.1,0a.46.46,0,0,1,.1.42c0,.14,0,.28,0,.42a.15.15,0,0,1-.11.16.42.42,0,0,0-.23.51s0,0,0,.06a.13.13,0,0,1,0,.07.42.42,0,0,0,.09.27.91.91,0,0,1,.11.16.34.34,0,0,0,.41.16.33.33,0,0,1,.17,0,.28.28,0,0,0,.22,0,2.49,2.49,0,0,0,.58-.37,2.15,2.15,0,0,1,.46-.33.13.13,0,0,0,.08-.17c0-.08,0-.17,0-.25a.25.25,0,0,0-.06-.26,4.28,4.28,0,0,1-.45-.58c0-.06.09,0,.13,0a2.7,2.7,0,0,1,.28.31,1.43,1.43,0,0,0,.78.52,1.37,1.37,0,0,0,.57,0,1,1,0,0,1,.38,0,.41.41,0,0,0,.32-.07l.1,0a1.68,1.68,0,0,0,.46-.24l0,0a.07.07,0,0,1,.1,0,.06.06,0,0,1,0,.1,1.12,1.12,0,0,1-.46.29,1.37,1.37,0,0,0-.43.23,3.36,3.36,0,0,1-.67.37.36.36,0,0,0-.21.33,4.89,4.89,0,0,0,0,.54.38.38,0,0,1,0,.21A1.56,1.56,0,0,0,546.47,425.33ZM543,424v.12s0,0,0,.07a.08.08,0,0,0,.08,0c.08-.06.07-.14.07-.23s0-.24.24-.24h.05c.13,0,.24-.05.29-.18s0,0,0-.06a0,0,0,0,0-.07,0l-.12.09a.1.1,0,0,1-.12,0,.34.34,0,0,1-.17-.35.55.55,0,0,0,0-.22,1.32,1.32,0,0,0-.21-.67.1.1,0,0,0-.13-.06c-.06,0,0,.07,0,.12a.31.31,0,0,0,0,.08,1.6,1.6,0,0,1,.05.21c0,.1,0,.2,0,.29a.45.45,0,0,0-.06.46A1.07,1.07,0,0,1,543,424Zm1.48,2.37a.52.52,0,0,0,0-.11c-.07-.2-.09-.41-.16-.61,0,0,0-.07,0-.11a.17.17,0,0,1,.1-.19,1.62,1.62,0,0,0,.19-.18.08.08,0,0,0,0-.09s-.06,0-.1,0a.54.54,0,0,0-.2.1s-.08,0-.11,0-.19-.11-.26-.19a.09.09,0,0,0-.11,0s0,.06,0,.1a.16.16,0,0,0,0,.08.73.73,0,0,1,.09.48.09.09,0,0,0,0,.05,3.75,3.75,0,0,0,.38.78.08.08,0,0,0,.11,0C544.45,426.46,544.44,426.41,544.45,426.35Zm2.08-2.31c-.12,0-.19,0-.31.19s-.11.22,0,.35l.1.09a.07.07,0,0,0,.11-.05v-.11a.21.21,0,0,1,.18-.23l.22-.06s.06,0,0-.07,0,0-.07,0a.43.43,0,0,1-.24-.06Z" transform="translate(-530.48 -418.12)"/><path class="cls-2" d="M538.23,425.82s0-.05,0-.07a.21.21,0,0,0,0-.13.3.3,0,0,1,.06-.18,1,1,0,0,0,.18-.32.6.6,0,0,0,.05-.3.14.14,0,0,1,.09-.15l0,0a1.64,1.64,0,0,1,.3-.29.24.24,0,0,0,.1-.1,3.6,3.6,0,0,1,.45-.58.67.67,0,0,0,.18-.47.2.2,0,0,1,.07-.16s0,0,0,0,0,0,0,.05a1,1,0,0,1,0,.43.31.31,0,0,0,0,.1s0,.09.09.1.08,0,.09-.07.16-.3.23-.45a.2.2,0,0,0,0-.22.43.43,0,0,1,0-.45c.06-.13.12-.25.19-.38a.2.2,0,0,0,0-.2.09.09,0,0,1,0-.1c0-.05.09,0,.11,0a.61.61,0,0,1,.08.27,1.45,1.45,0,0,1,0,.55.92.92,0,0,0,0,.49.36.36,0,0,1,0,.23c-.1.2-.18.4-.29.59a.34.34,0,0,0,0,.41.32.32,0,0,1-.06.39.53.53,0,0,1-.41.16c-.22,0-.44,0-.66,0a.52.52,0,0,0-.41.31.58.58,0,0,1-.16.19.8.8,0,0,0-.27.36s0,0,0,0,0,0,0-.07Zm2-2.09c0-.06,0-.08,0-.08a.14.14,0,0,0-.11.05,2.71,2.71,0,0,0-.24.35.26.26,0,0,1-.19.15l-.21.07a.22.22,0,0,0-.15.13.3.3,0,0,1-.15.18l-.16.1-.12.12a.06.06,0,0,0,0,.06,0,0,0,0,0,.06,0l.08,0a1.4,1.4,0,0,0,.56-.17.48.48,0,0,1,.21-.07.1.1,0,0,0,.1-.05.59.59,0,0,0,.09-.2.62.62,0,0,1,.12-.26,2.59,2.59,0,0,0,.14-.29A.25.25,0,0,0,540.28,423.73Z" transform="translate(-530.48 -418.12)"/><path class="cls-2" d="M537.61,425.82a.59.59,0,0,0-.14-.4l0,0a.28.28,0,0,1,0-.37,2,2,0,0,0,.14-.34s0-.06,0-.07-.12-.05-.09-.15a.23.23,0,0,0,0-.14c-.06-.15,0-.2.07-.32l.27-.29a.58.58,0,0,0,.08-.18,2.8,2.8,0,0,0,.13-.41,2,2,0,0,1,.08-.33,1.05,1.05,0,0,1,.48-.54.81.81,0,0,0,.39-.46c0-.05,0-.14.11-.11s0,.1,0,.14a.62.62,0,0,1-.18.36,1.66,1.66,0,0,0-.45.66.68.68,0,0,0,.09.66.41.41,0,0,1,.06.37.84.84,0,0,1-.27.4.38.38,0,0,0-.11.24,3,3,0,0,1-.31,1.14c-.07.12-.12.25-.18.38a2.63,2.63,0,0,0-.08.3.6.6,0,0,1-.14.21s0,0-.05,0a.08.08,0,0,1,0-.05.37.37,0,0,1,.05-.2A1.45,1.45,0,0,0,537.61,425.82Zm.67-1.91a.13.13,0,0,0,0-.06,1,1,0,0,1-.08-.52,2.62,2.62,0,0,1,0-.28s0-.06,0-.07,0,0-.06,0a1,1,0,0,0-.15.44,2.62,2.62,0,0,1,0,.28.2.2,0,0,1-.06.15.37.37,0,0,0-.16.27,2.44,2.44,0,0,0,0,.27,2.66,2.66,0,0,1-.06.89c0,.06,0,.13,0,.16s.1-.05.13-.1a1,1,0,0,0,.1-.57.91.91,0,0,1,.24-.67A.32.32,0,0,0,538.28,423.91Z" transform="translate(-530.48 -418.12)"/><path class="cls-2" d="M542.33,423.8a.52.52,0,0,1-.19.46l-.21.22a.26.26,0,0,0,0,.37.35.35,0,0,1,.08.34,1.44,1.44,0,0,1-.17.45,3.6,3.6,0,0,1-.39.57.21.21,0,0,0,0,.11,1.72,1.72,0,0,0,.11.67.23.23,0,0,1,0,.2s0,.05,0,.05,0,0,0-.05a1.2,1.2,0,0,0-.08-.27.48.48,0,0,0-.12-.22.52.52,0,0,1-.14-.22c0-.05-.06-.07-.11-.08a.7.7,0,0,1-.6-.58,1.13,1.13,0,0,0-.09-.28.34.34,0,0,1,0-.35l.15-.24s0-.09.11-.08.08.11.07.17l0,.09c0,.08,0,.11.07.12l.27,0a.24.24,0,0,0,.18-.1,4.43,4.43,0,0,0,.47-.6.69.69,0,0,1,.2-.25,2.83,2.83,0,0,0,.24-.25.07.07,0,0,0,0-.11,0,0,0,0,1,0-.07,1.43,1.43,0,0,1,.23-.26s0,0,0,0,0,0,0,.05A.57.57,0,0,1,542.33,423.8Zm-.66,1.6c0-.21-.13-.32-.29-.25a.49.49,0,0,0-.31.29c0,.11-.07.13-.19.1a1,1,0,0,0-.29,0c-.05,0-.09,0-.09.08a.51.51,0,0,0,.47.54.11.11,0,0,1,.11.07l0,.09c0,.05.06.08.11.06s.06-.07,0-.12a.2.2,0,0,1,0-.21l.29-.4A.27.27,0,0,0,541.67,425.4Z" transform="translate(-530.48 -418.12)"/><path class="cls-2" d="M539.18,427.19s0-.08,0-.13a6.18,6.18,0,0,0,.2-1.14.67.67,0,0,0,0-.2.47.47,0,0,1,.17-.47l.15-.13a0,0,0,0,1,.07,0s0,.05,0,.07v0c-.19.13-.1.32-.11.49s0,0,.05,0a.12.12,0,0,0,.06-.08,2.8,2.8,0,0,1,.09-.31.39.39,0,0,1,.3-.27,0,0,0,0,1,.06,0s0,0,0,.06a.81.81,0,0,0-.12.14.55.55,0,0,0,0,.38s0,0,0,.08,0,.19-.1.26a1,1,0,0,0-.51.65,2.3,2.3,0,0,0-.12.58.19.19,0,0,0,0,.16.23.23,0,0,1,0,.2c0,.05,0,0-.06,0A.67.67,0,0,1,539.18,427.19Z" transform="translate(-530.48 -418.12)"/><path class="cls-2" d="M539.73,421.81c-.19,0-.29-.13-.34-.26a.27.27,0,0,1,.06-.21l.13-.13a.09.09,0,0,1,.11,0,.11.11,0,0,0,.16-.06,5.26,5.26,0,0,0,.27-.47c.06-.12,0-.15,0-.25a.1.1,0,0,1,0-.07s0-.07.05-.08a.08.08,0,0,1,.08,0,.3.3,0,0,1,.08.44.32.32,0,0,0,0,.27c0,.08,0,.17,0,.26C540.3,421.5,540,421.85,539.73,421.81Z" transform="translate(-530.48 -418.12)"/><path class="cls-2" d="M545.1,423.46l-.17.07-.23-.07a.46.46,0,0,0-.38,0l-.11.06h0a1.22,1.22,0,0,0,.14-.56,2,2,0,0,0,0-.34.09.09,0,0,0,0-.09.08.08,0,0,0-.07,0s0,0,0,.06a.65.65,0,0,0,0,.24s0,0,0,0,0,0,0,0a.52.52,0,0,1,0-.51c0-.09.08-.1.15,0l.12.12,0,0h0c0,.05,0,.13.09.15a.92.92,0,0,0,.13.21v0a1.64,1.64,0,0,1-.15.49v0a.6.6,0,0,1,.44-.16A1.57,1.57,0,0,0,545.1,423.46Z" transform="translate(-530.48 -418.12)"/><path class="cls-2" d="M535.59,422.54a4.68,4.68,0,0,1,.06-1.12.26.26,0,0,1,.26-.2,1.09,1.09,0,0,0,.44,0l.32,0a.6.6,0,0,0,.3-.14l.06,0s0,0,.05,0,0,0,0,.06a.48.48,0,0,1-.09.11.73.73,0,0,1-.45.21,1.25,1.25,0,0,0-.26.07c0-.07.05-.12.08-.18s-.06,0-.12.05a1.56,1.56,0,0,0-.56.91A1.24,1.24,0,0,1,535.59,422.54Z" transform="translate(-530.48 -418.12)"/><path class="cls-2" d="M533.93,427.45a.39.39,0,0,1,.08-.25,3,3,0,0,1,.56-.57c.28-.21.57-.42.84-.65l.06-.06a.23.23,0,0,1,.24-.12s.07,0,.08,0,0,.07,0,.08,0,0,0,0-.27.21-.4.32l-.05.05s0,0,0,0h0s0,0,0,0h0a1.62,1.62,0,0,0-.44.34.36.36,0,0,0-.08.15,2.56,2.56,0,0,0-.05.27.08.08,0,0,0-.11,0,.66.66,0,0,0-.34.2s-.11.07-.15.12S534,427.42,533.93,427.45Z" transform="translate(-530.48 -418.12)"/><path class="cls-2" d="M537.53,422.22c.06.22-.1.38-.23.54a.33.33,0,0,1-.22.11.24.24,0,0,0-.12,0,3,3,0,0,0-.45.35l0,0s0,0-.06,0a.06.06,0,0,1,0-.06.48.48,0,0,1,.11-.24,1.54,1.54,0,0,1,.47-.37.05.05,0,0,1,0,0,.25.25,0,0,0,.24-.16s0,0,0-.06.08-.14.06-.25a3.11,3.11,0,0,1-.06-.44,0,0,0,0,1,0-.05s0,0,0,.05l.06.16a.15.15,0,0,0,.09.13.07.07,0,0,1,0,.07Z" transform="translate(-530.48 -418.12)"/><path class="cls-2" d="M536.54,422.08a.66.66,0,0,1-.19.39s-.06,0,0,.06a.08.08,0,0,0,.1,0,3.62,3.62,0,0,0,.32-.22.16.16,0,0,0,.07-.11.77.77,0,0,1,.22-.32s0,0,.05,0,0,0,0,.05a.53.53,0,0,1-.26.43,1.67,1.67,0,0,0-.54.45,1,1,0,0,1-.65.31s0,0-.06,0,0,0,0-.06a.11.11,0,0,1,.09-.07c.16,0,.22-.12.25-.26l0-.14.07-.07A1.83,1.83,0,0,1,536.54,422.08Z" transform="translate(-530.48 -418.12)"/><path class="cls-2" d="M543.26,420.48a1.35,1.35,0,0,1,0,.4l0,.05c-.08.05-.05.11,0,.18l.13.18a.76.76,0,0,1,.18.22l0,.62a.08.08,0,0,1-.07-.07,1.72,1.72,0,0,0-.31-.45l-.07-.09c0-.07-.06-.12,0-.19a.3.3,0,0,0,0-.26.56.56,0,0,1,0-.29C543.14,420.68,543.21,420.58,543.26,420.48Z" transform="translate(-530.48 -418.12)"/><path class="cls-2" d="M534.08,425.57a3.17,3.17,0,0,0,.53-.95,1.82,1.82,0,0,1,.16-.31.28.28,0,0,1,0,.09.66.66,0,0,0,.15.57l0,0s-.08,0-.1.05-.15,0-.18.09a.53.53,0,0,0,0,.12l0,.07c0,.11,0,.12-.13.07s-.05,0-.07,0a.69.69,0,0,1-.2.13S534.12,425.58,534.08,425.57Z" transform="translate(-530.48 -418.12)"/><path class="cls-2" d="M538.94,429a.31.31,0,0,1-.09.26.2.2,0,0,0,0,.08.53.53,0,0,1-.16.2s-.07,0-.08,0a.35.35,0,0,1,0-.2,4.35,4.35,0,0,0,.18-.71,1.82,1.82,0,0,0,0-.33.21.21,0,0,1,0-.11.06.06,0,0,1,.07,0,.07.07,0,0,1,0,.06c0,.12,0,.24,0,.36A1.78,1.78,0,0,0,538.94,429Z" transform="translate(-530.48 -418.12)"/><path class="cls-2" d="M535.94,424.32a2,2,0,0,1-.26.24c0-.06-.09-.11-.09-.19l.08-.15c0-.05,0-.08,0-.11a.93.93,0,0,1,.3-.41H536c.16,0,.2.05.21.2l-.11,0A.31.31,0,0,0,535.94,424.32Z" transform="translate(-530.48 -418.12)"/><path class="cls-2" d="M538.91,423.13v0s0,.09,0,.1a.14.14,0,0,0,.14,0,2,2,0,0,0,.6-.87v0a.61.61,0,0,1,0,.44,2.9,2.9,0,0,1-.49.66l-.09.06a.07.07,0,0,1-.11,0,.11.11,0,0,0,0-.07A.21.21,0,0,1,538.91,423.13Z" transform="translate(-530.48 -418.12)"/><path class="cls-2" d="M542.51,425.55c.06-.06.11-.13.21-.07s.06,0,.09,0h0s0,0,0,.07,0,.08,0,.11.09,0,.09.09.07.11.15.11a.4.4,0,0,1,.23.06c.09.05.1.14.16.21a.44.44,0,0,1,.06.25c-.08-.05-.14-.12-.22-.16h0l0,0a.16.16,0,0,1-.06-.08.3.3,0,0,0-.35-.19c-.05,0-.12,0-.12-.06a.18.18,0,0,0-.1-.16s0,0,0-.06,0-.07,0-.09Z" transform="translate(-530.48 -418.12)"/><path class="cls-2" d="M544.69,423.75l-.06.13a.18.18,0,0,1-.09.1.52.52,0,0,0-.19.17s0,.05,0,.05a.12.12,0,0,1,.12.09c0,.06.07.06.13,0l.51-.14a.14.14,0,0,1-.1.07,3.86,3.86,0,0,1-.73.23.08.08,0,0,1-.09,0c0-.06-.06-.11-.15-.11.07-.06.11-.14.2-.18a.18.18,0,0,0,.08-.09.61.61,0,0,1,.18-.27A.18.18,0,0,1,544.69,423.75Z" transform="translate(-530.48 -418.12)"/><path class="cls-2" d="M535.86,426.67a.51.51,0,0,1-.4.35.34.34,0,0,1,.1-.16l0-.06s0,0,0-.07,0,0-.06,0,0-.05,0-.08.12-.27.16-.42h0s0,0,0,0L536,426c0,.12,0,.24-.07.35a1.17,1.17,0,0,0,0,.26h0Z" transform="translate(-530.48 -418.12)"/><path class="cls-2" d="M535.05,424.23a1,1,0,0,1-.11-.39.64.64,0,0,1,.17-.35s0,.06,0,.09,0,.06,0,.08,0,0,.07,0a1.59,1.59,0,0,1,.22-.13v0a5.08,5.08,0,0,0-.33.66Z" transform="translate(-530.48 -418.12)"/><path class="cls-2" d="M536.09,422.23a1.33,1.33,0,0,1,.49-.59c-.1.1-.05.2,0,.31l-.35.24A.18.18,0,0,1,536.09,422.23Z" transform="translate(-530.48 -418.12)"/><path class="cls-2" d="M542.59,424.88a.56.56,0,0,0,0,.36s0,.08,0,.12a.67.67,0,0,1-.15.14.62.62,0,0,0,0-.27.61.61,0,0,1,.13-.46Z" transform="translate(-530.48 -418.12)"/><path class="cls-2" d="M533.92,423a.28.28,0,0,1,0,.12,1.66,1.66,0,0,0-.15.39.26.26,0,0,1-.14.17c-.05,0-.05,0-.05,0a.38.38,0,0,1,.07-.21.37.37,0,0,0,.08-.18,1.69,1.69,0,0,1,.12-.28s.05-.05.08,0A.07.07,0,0,1,533.92,423Z" transform="translate(-530.48 -418.12)"/><path class="cls-2" d="M543.06,425.18a.09.09,0,0,0,.09-.05s0-.06,0-.09a.26.26,0,0,0-.18-.12.22.22,0,0,1,.22.05,1.49,1.49,0,0,0,.14.12s.07.08,0,.13-.09.1-.17,0S543.08,425.22,543.06,425.18Z" transform="translate(-530.48 -418.12)"/><path class="cls-2" d="M545.66,425.44h0a.08.08,0,0,1-.07,0c.13-.08.13-.16,0-.25l0-.05a.77.77,0,0,1,.28.19A.71.71,0,0,0,545.66,425.44Z" transform="translate(-530.48 -418.12)"/><path class="cls-2" d="M535.36,424.41a.22.22,0,0,1-.21,0,.92.92,0,0,1,.1-.32.27.27,0,0,0,.08.24h0a0,0,0,0,0,0,0h0Z" transform="translate(-530.48 -418.12)"/><path class="cls-2" d="M538.49,421.83a.19.19,0,0,1-.07.12,2.78,2.78,0,0,0-.26.34l-.06.06a1.43,1.43,0,0,1,.39-.53Z" transform="translate(-530.48 -418.12)"/><path class="cls-2" d="M535.63,424.62l-.17.17s0,0,0,0,0,0,0-.05a.36.36,0,0,1,.07-.17S535.58,424.6,535.63,424.62Z" transform="translate(-530.48 -418.12)"/><path class="cls-2" d="M534,423.24a2.42,2.42,0,0,0,.1-.36l0-.06a0,0,0,0,1,0,0,0,0,0,0,1,0,0A.81.81,0,0,1,534,423.24Z" transform="translate(-530.48 -418.12)"/><path class="cls-2" d="M539.93,422.73c0-.11,0-.22,0-.33C540.07,422.51,539.93,422.62,539.93,422.73Z" transform="translate(-530.48 -418.12)"/><path class="cls-2" d="M546.49,425.55a.47.47,0,0,1,.09.33A.45.45,0,0,1,546.49,425.55Z" transform="translate(-530.48 -418.12)"/><path class="cls-2" d="M548.52,427.65a.29.29,0,0,1-.12-.1l-.14-.2A.94.94,0,0,1,548.52,427.65Z" transform="translate(-530.48 -418.12)"/><path class="cls-2" d="M534.22,423.76s0-.05,0-.06.1-.17.16-.25A.57.57,0,0,1,534.22,423.76Z" transform="translate(-530.48 -418.12)"/><path class="cls-2" d="M534.19,423.49a.48.48,0,0,1-.05.17s0,0-.09,0A1,1,0,0,1,534.19,423.49Z" transform="translate(-530.48 -418.12)"/><path class="cls-2" d="M542.91,425.27l-.08-.17a.14.14,0,0,1,.1.1S543,425.25,542.91,425.27Z" transform="translate(-530.48 -418.12)"/><path class="cls-2" d="M543.1,424.7l-.08.05s0-.07,0-.08A0,0,0,0,1,543.1,424.7Z" transform="translate(-530.48 -418.12)"/><path class="cls-2" d="M545.48,425s-.05,0-.09,0S545.45,425,545.48,425Z" transform="translate(-530.48 -418.12)"/><path class="cls-2" d="M534,423.32a.07.07,0,0,1,0-.07s0,0,0,0S534,423.31,534,423.32Z" transform="translate(-530.48 -418.12)"/><path class="cls-2" d="M548.83,428.21s0,0,.06,0S548.84,428.25,548.83,428.21Z" transform="translate(-530.48 -418.12)"/><path class="cls-2" d="M534.21,422.74v0a0,0,0,0,1,0,0s0,0,0,0Z" transform="translate(-530.48 -418.12)"/><path class="cls-2" d="M534.2,423.45s0,0,0,.05S534.19,423.46,534.2,423.45Z" transform="translate(-530.48 -418.12)"/><path class="cls-2" d="M535.39,423.52h0s0,0,0,0Z" transform="translate(-530.48 -418.12)"/><path class="cls-2" d="M533.83,423.6s0,0,0,0,0,0,0,0Z" transform="translate(-530.48 -418.12)"/><path class="cls-2" d="M534.78,424.27a.06.06,0,0,1,0,0S534.77,424.28,534.78,424.27Z" transform="translate(-530.48 -418.12)"/><path class="cls-2" d="M548.73,428.11l0,0Z" transform="translate(-530.48 -418.12)"/><path class="cls-2" d="M548.36,427.62s0,0,0,0S548.35,427.64,548.36,427.62Z" transform="translate(-530.48 -418.12)"/><path class="cls-2" d="M547.93,427.56s0,0,0,0A.05.05,0,0,1,547.93,427.56Z" transform="translate(-530.48 -418.12)"/><path class="cls-2" d="M545.39,425s0,0,0,0S545.38,425,545.39,425Z" transform="translate(-530.48 -418.12)"/><path class="cls-2" d="M538.35,425.86s0,0,0,0S538.36,425.86,538.35,425.86Z" transform="translate(-530.48 -418.12)"/><path class="cls-2" d="M538.54,425.82h0Z" transform="translate(-530.48 -418.12)"/><path class="cls-2" d="M534.08,425.57h0Z" transform="translate(-530.48 -418.12)"/><path class="cls-2" d="M548.75,428.13s0,0,0,0Z" transform="translate(-530.48 -418.12)"/><path class="cls-2" d="M548.76,428.15s0,0,0,0S548.76,428.16,548.76,428.15Z" transform="translate(-530.48 -418.12)"/><path class="cls-2" d="M548.78,428.16s0,0,0,0S548.78,428.18,548.78,428.16Z" transform="translate(-530.48 -418.12)"/><path class="cls-2" d="M548.79,428.18s0,0,0,0Z" transform="translate(-530.48 -418.12)"/><path class="cls-2" d="M548.81,428.2s0,0,0,0S548.81,428.21,548.81,428.2Z" transform="translate(-530.48 -418.12)"/><path class="cls-2" d="M533.79,423.67s0,0,0,0,0,0,0,0Z" transform="translate(-530.48 -418.12)"/><path class="cls-2" d="M533.78,423.66h0s0,0,0,0Z" transform="translate(-530.48 -418.12)"/><path class="cls-2" d="M533.83,423.63s0,0,0,0a0,0,0,0,1,0,0Z" transform="translate(-530.48 -418.12)"/><path class="cls-2" d="M533.84,423.61v0h0l0,0Z" transform="translate(-530.48 -418.12)"/><path class="cls-2" d="M544.21,423.56h0v0Z" transform="translate(-530.48 -418.12)"/><path class="cls-2" d="M533.91,423.5s0,0,0,0,0,0,0,0Z" transform="translate(-530.48 -418.12)"/><path class="cls-2" d="M533.89,423.49h0s0,0,0,0Z" transform="translate(-530.48 -418.12)"/><path class="cls-2" d="M545.25,431.84h0Z" transform="translate(-530.48 -418.12)"/><polygon class="cls-2" points="8.01 3.71 8.02 3.7 8.02 3.71 8.01 3.71 8.01 3.71"/><path class="cls-2" d="M547,421c0,.1.08.16.13.23a5.44,5.44,0,0,1,.53.73.15.15,0,0,1,0,.17.34.34,0,0,1-.21.16l-.12.05a.08.08,0,0,1,0-.11.14.14,0,0,0,.05-.15.76.76,0,0,0-.36-.54.2.2,0,0,0-.15,0l-.23.05a.39.39,0,0,1-.1-.19,1.7,1.7,0,0,0-.44-.72c.26.13.54.15.79.27,0,0,.07,0,.09.06s0,0,0,0Z" transform="translate(-530.48 -418.12)"/><path class="cls-2" d="M546.88,420.78l-.31-.07a.52.52,0,0,0-.25,0,.06.06,0,0,1-.09-.05s0-.05-.06-.07a1.51,1.51,0,0,1-.37-.43s0-.07,0-.11.08,0,.11,0a2.8,2.8,0,0,0,.28.31.13.13,0,0,0,.11.06,2.13,2.13,0,0,1,.49.15A.43.43,0,0,1,546.88,420.78Z" transform="translate(-530.48 -418.12)"/><path class="cls-2" d="M545.37,420.86a.14.14,0,0,1,.17,0,6.93,6.93,0,0,0,.58.5l.3.2a.12.12,0,0,1,.06.09.48.48,0,0,1-.24-.06l-.08,0a.09.09,0,0,0-.13.05s0,.05,0,0l-.46-.7A.24.24,0,0,0,545.37,420.86Z" transform="translate(-530.48 -418.12)"/><path class="cls-2" d="M546.72,422.05a.13.13,0,0,1-.12,0,.22.22,0,1,1-.13-.2A.45.45,0,0,1,546.72,422.05Z" transform="translate(-530.48 -418.12)"/><path class="cls-2" d="M546,420.57l-.31,0s-.06,0-.06-.05,0-.05,0-.06,0,0,0,0a.39.39,0,0,0,.21.08S545.93,420.56,546,420.57Z" transform="translate(-530.48 -418.12)"/><polygon class="cls-2" points="15.52 2.48 15.52 2.48 15.51 2.48 15.52 2.47 15.52 2.48"/><polygon class="cls-2" points="15.55 2.5 15.55 2.5 15.54 2.5 15.55 2.49 15.55 2.5"/><polygon class="cls-2" points="15.58 2.51 15.58 2.51 15.58 2.52 15.57 2.51 15.58 2.51"/><path class="cls-2" d="M546.88,420.78s0,0,0,0S546.88,420.8,546.88,420.78Z" transform="translate(-530.48 -418.12)"/><path class="cls-1" d="M536.24,423.9h.08c.14,0,.17,0,.19.2a.35.35,0,0,1-.12.23,1.29,1.29,0,0,0-.15.17,2.18,2.18,0,0,0-.35.33h0s-.08.07-.12.1,0,0,0,0a.08.08,0,0,1,0-.05.42.42,0,0,1,0-.1l.21-.39s0-.06,0-.09a.31.31,0,0,1,.19-.39Z" transform="translate(-530.48 -418.12)"/><path class="cls-1" d="M545.34,425.17a.54.54,0,0,1,.22,0c.12.09.12.17,0,.25a.91.91,0,0,0-.26.13c-.14,0-.2-.1-.14-.22A.33.33,0,0,1,545.34,425.17Z" transform="translate(-530.48 -418.12)"/><path class="cls-2" d="M541.22,429.37c0-.08,0-.11.1-.07a.22.22,0,0,0,.34-.12,1,1,0,0,0,.08-.21s0,0,0-.06a0,0,0,0,1,.07,0,.05.05,0,0,1,0,.07,2.06,2.06,0,0,1-.16.37.74.74,0,0,0-.15.5.09.09,0,0,1,0,.07.06.06,0,0,1,0,.05,0,0,0,0,1-.06,0,3.85,3.85,0,0,1-.22-.52Z" transform="translate(-530.48 -418.12)"/><path class="cls-2" d="M535.81,427.3l-.19.07a.4.4,0,0,0-.24.16s0,.06-.09,0,0-.06,0-.1a.31.31,0,0,1,.24-.26.87.87,0,0,0,.3-.16Z" transform="translate(-530.48 -418.12)"/><path class="cls-2" d="M535.55,426.74s0,0,0,0S535.56,426.74,535.55,426.74Z" transform="translate(-530.48 -418.12)"/><path class="cls-2" d="M533.1,422.86s0,0,.08,0a.36.36,0,0,1,.06.45l0,.1s0,0-.05,0a.05.05,0,0,1,0,0,.53.53,0,0,0,0-.22l0-.07A.3.3,0,0,0,533.1,422.86Z" transform="translate(-530.48 -418.12)"/><path class="cls-2" d="M543.25,427.5c0-.14-.1-.22-.14-.32a1.13,1.13,0,0,1-.06-.36s0,0,0-.06.13-.06.16,0a.26.26,0,0,0,.07.15s0,0,0,0a.73.73,0,0,0,.12.32.42.42,0,0,1,0,.31.23.23,0,0,0-.11-.11h0Z" transform="translate(-530.48 -418.12)"/><path class="cls-2" d="M542.85,427c-.07,0-.11-.1-.19-.12h0s0,0,0,0h0s0,0,0,0h0a.22.22,0,0,0-.06-.13l.09-.29c.05-.14.06-.15.21-.14l0,.13a.23.23,0,0,0-.11.29.6.6,0,0,0,.13.25Z" transform="translate(-530.48 -418.12)"/><path class="cls-2" d="M547.16,420a.08.08,0,0,1,0,.09.08.08,0,0,1-.08,0,.68.68,0,0,1-.31-.14s0,0-.06,0a.35.35,0,0,1-.28-.22c0-.07,0-.12.08-.12a.15.15,0,0,1,.16.08l.1.09s0,0,0,0h0a1.06,1.06,0,0,0,.23.19A.14.14,0,0,0,547.16,420Z" transform="translate(-530.48 -418.12)"/><path class="cls-2" d="M547.9,420.48v0h0Z" transform="translate(-530.48 -418.12)"/><path class="cls-2" d="M548.1,420.74v0h0Z" transform="translate(-530.48 -418.12)"/><path class="cls-1" d="M547.57,419.63v0s0,0,0,0Z" transform="translate(-530.48 -418.12)"/><path class="cls-1" d="M543.21,426.4c0-.07-.12-.09-.18-.14a0,0,0,0,0-.07,0,.15.15,0,0,1-.09,0c-.15,0-.16,0-.21.14l-.09.29c0,.06,0,.1.06.13h0s0,0,0,0h0s0,0,0,0h0s.05.07.07.11,0,0,0,0,0,0,0,0a.67.67,0,0,1-.27-.26c0-.09-.12-.16-.11-.27a2.3,2.3,0,0,1,0-.26.24.24,0,0,0,0-.2.11.11,0,0,1,0-.05c.07-.08,0-.17,0-.25a.37.37,0,0,1,.09-.19l.1,0,.06,0c.06,0,.12,0,0,.09s0,0,0,.06a.18.18,0,0,1,.1.16c0,.07.07.07.12.06a.3.3,0,0,1,.35.19.16.16,0,0,0,.06.08s0,0,0,0h0a1.92,1.92,0,0,0,.14.33s-.07,0-.1-.06A.76.76,0,0,1,543.21,426.4Zm-.7-.37a.18.18,0,0,0,0,.16.1.1,0,0,0,.09-.13C542.61,426,542.57,426,542.51,426Z" transform="translate(-530.48 -418.12)"/><path class="cls-2" d="M547.79,419.45c.05,0,.1,0,.11.08s0,0-.09,0A.06.06,0,0,1,547.79,419.45Z" transform="translate(-530.48 -418.12)"/><path class="cls-1" d="M543,424a1.07,1.07,0,0,0-.1-.58.45.45,0,0,1,.06-.46c.07-.09,0-.19,0-.29a1.6,1.6,0,0,0-.05-.21.31.31,0,0,1,0-.08c0-.05,0-.1,0-.12a.1.1,0,0,1,.13.06,1.32,1.32,0,0,1,.21.67.55.55,0,0,1,0,.22.34.34,0,0,0,.17.35.1.1,0,0,0,.12,0l.12-.09a0,0,0,0,1,.07,0s0,0,0,.06-.16.16-.29.18h-.05c-.23,0-.24,0-.24.24s0,.17-.07.23a.08.08,0,0,1-.08,0s0-.05,0-.07Z" transform="translate(-530.48 -418.12)"/><path class="cls-1" d="M544.45,426.35c0,.06,0,.11-.05.13a.08.08,0,0,1-.11,0,3.75,3.75,0,0,1-.38-.78.09.09,0,0,1,0-.05.73.73,0,0,0-.09-.48.16.16,0,0,1,0-.08s0-.08,0-.1a.09.09,0,0,1,.11,0c.07.08.18.11.26.19s.07,0,.11,0a.54.54,0,0,1,.2-.1s.08,0,.1,0a.08.08,0,0,1,0,.09,1.62,1.62,0,0,1-.19.18.17.17,0,0,0-.1.19s0,.08,0,.11c.07.2.09.41.16.61A.52.52,0,0,1,544.45,426.35Z" transform="translate(-530.48 -418.12)"/><path class="cls-1" d="M546.53,424h.06a.43.43,0,0,0,.24.06s.06,0,.07,0,0,.06,0,.07l-.22.06a.21.21,0,0,0-.18.23v.11a.07.07,0,0,1-.11.05l-.1-.09c-.13-.13-.13-.2,0-.35S546.41,424,546.53,424Z" transform="translate(-530.48 -418.12)"/><path class="cls-1" d="M540.28,423.73a.25.25,0,0,1,0,.07,2.59,2.59,0,0,1-.14.29.62.62,0,0,0-.12.26.59.59,0,0,1-.09.2.1.1,0,0,1-.1.05.48.48,0,0,0-.21.07,1.4,1.4,0,0,1-.56.17l-.08,0a0,0,0,0,1-.06,0,.06.06,0,0,1,0-.06l.12-.12.16-.1a.3.3,0,0,0,.15-.18.22.22,0,0,1,.15-.13l.21-.07a.26.26,0,0,0,.19-.15,2.71,2.71,0,0,1,.24-.35.14.14,0,0,1,.11-.05S540.29,423.67,540.28,423.73Z" transform="translate(-530.48 -418.12)"/><path class="cls-1" d="M538.28,423.91a.32.32,0,0,1-.11.23.91.91,0,0,0-.24.67,1,1,0,0,1-.1.57c0,.05-.06.13-.13.1s-.05-.1,0-.16a2.66,2.66,0,0,0,.06-.89,2.44,2.44,0,0,1,0-.27.37.37,0,0,1,.16-.27.2.2,0,0,0,.06-.15,2.62,2.62,0,0,0,0-.28,1,1,0,0,1,.15-.44s0,0,.06,0,0,0,0,.07a2.62,2.62,0,0,0,0,.28,1,1,0,0,0,.08.52A.13.13,0,0,1,538.28,423.91Z" transform="translate(-530.48 -418.12)"/><path class="cls-1" d="M541.67,425.4a.27.27,0,0,1-.07.23l-.29.4a.2.2,0,0,0,0,.21c0,.05,0,.11,0,.12s-.09,0-.11-.06l0-.09a.11.11,0,0,0-.11-.07.51.51,0,0,1-.47-.54c0-.06,0-.08.09-.08a1,1,0,0,1,.29,0c.12,0,.15,0,.19-.1a.49.49,0,0,1,.31-.29C541.54,425.08,541.67,425.19,541.67,425.4Z" transform="translate(-530.48 -418.12)"/><path class="cls-2" d="M542.51,426c.06,0,.1,0,.11,0a.1.1,0,0,1-.09.13A.22.22,0,0,0,542.51,426Z" transform="translate(-530.48 -418.12)"/></svg>